<svg width="480" height="480" viewBox="0 0 480 480" fill="none" xmlns="http://www.w3.org/2000/svg">
<g filter="url(#filter0_ddd_393_4921)">
<circle cx="239.91" cy="239.91" r="191.91" fill="black" style="fill:black;fill-opacity:1;"/>
<circle cx="239.91" cy="239.91" r="190.964" stroke="#3BC3D3" style="stroke:#3BC3D3;stroke:color(display-p3 0.2314 0.7647 0.8275);stroke-opacity:1;" stroke-width="1.89212"/>
</g>
<path opacity="0.2" fill-rule="evenodd" clip-rule="evenodd" d="M222.204 119.815C172.499 123.526 130.056 156.278 113.595 203.632C108.834 217.588 107.462 226.381 107.462 244.289C107.543 257.923 107.785 261.714 109.399 268.894C113.111 286.158 119.404 301.001 128.926 314.957C133.525 321.572 135.623 324.073 133.767 320.685C131.75 316.893 126.989 301.404 125.133 292.773C122.632 280.591 121.583 257.197 123.197 247.355C124.407 239.449 128.684 227.187 133.445 217.749C152.568 179.672 184.199 163.054 237.778 163.054C258.838 163.054 272.798 166.442 285.143 174.429C305.961 187.901 312.094 213.715 300.071 237.029C290.792 255.099 268.602 265.587 239.876 265.667H234.308L234.792 276.719C235.357 291.724 237.616 298.661 243.588 303.018C249.881 307.697 271.991 304.228 288.21 296.08C323.552 278.413 348.082 241.224 355.264 194.596C356.232 188.385 356.635 177.575 356.958 152.567L357.362 118.847L293.777 119.008C258.757 119.089 226.562 119.492 222.204 119.815ZM235.439 186.258C234.631 186.58 234.388 193.106 234.388 214.939V243.138L237.865 242.574C246.841 241.204 254.927 234.275 258.728 224.688C261.396 217.92 261.396 205.674 258.809 199.793C256.626 195.039 251.369 189.561 247.245 187.869C244.011 186.499 236.976 185.613 235.439 186.258ZM137.002 252.912C142.724 226.121 159.566 202.154 180.116 191.906L186.563 188.678L186.966 244.197L187.368 299.715L189.383 304.719C192.042 311.174 195.749 316.419 199.94 319.486C206.548 324.247 219.522 326.748 238.299 326.748C275.529 326.748 300.269 316.581 326.379 290.435C338.87 277.928 346.445 265.5 353.456 245.649L356.921 235.966V242.018C357.163 291.323 329.602 335.786 285.764 356.687C276.254 361.206 268.357 363.869 256.914 366.451C249.661 368.065 246.518 368.307 231.691 368.307C217.346 368.226 213.559 367.984 206.548 366.451C186.401 362.093 167.303 352.813 151.83 339.902C147.398 336.19 146.592 334.979 144.013 328.604C140.468 319.728 136.599 303.831 135.31 293.34C134.021 282.446 134.827 263.241 137.002 252.912Z" fill="white" fill-opacity="0.3" style="fill:white;fill-opacity:0.3;"/>
<path d="M230.014 104.231C224.474 109.795 224.474 118.816 230.014 124.38C231.648 126.022 233.582 127.181 235.642 127.847C235.754 122.719 235.389 122.354 233.11 120.045L232.886 119.815C232.746 119.675 232.606 119.529 232.452 119.374C230.845 117.732 230.093 116.105 230.14 114.402C230.144 114.256 230.154 114.106 230.172 113.946C230.322 112.633 230.929 111.512 231.443 110.686C232.26 109.368 233.806 107.834 236.169 105.985C236.454 105.76 237.048 105.295 237.631 105.591C237.785 105.671 238.14 105.919 238.122 106.515C238.112 106.891 237.944 107.43 237.734 108.11L237.641 108.42C237.136 110.053 236.552 112.211 236.478 112.562L236.464 112.614C236.426 112.778 236.384 112.975 236.375 113.205C236.347 114.219 237.174 114.983 238.832 115.471C242.325 116.503 243.091 114.556 243.208 114.158C243.329 113.745 243.582 112.722 243.829 111.727L243.904 111.422C244.114 110.587 244.324 109.724 244.488 109.119C244.693 108.364 245.062 107.965 245.59 107.937C246.122 107.904 246.547 108.27 246.856 109.03C246.888 109.119 247.724 111.216 247.893 112.117C247.897 112.154 247.911 112.215 247.925 112.281L247.93 112.304C248.051 112.905 248.322 114.275 248.28 115.767C248.248 116.926 248.037 117.934 247.659 118.793C247.281 119.651 246.725 120.355 246.001 120.899C245.529 121.251 245.104 121.547 244.759 121.781C243.124 122.902 242.451 123.367 242.138 126.125C242.064 126.749 242.012 127.5 241.984 128.415C244.945 128.007 247.804 126.665 250.083 124.376C255.622 118.811 258.971 95.3027 258.971 95.3027C258.971 95.3027 235.553 98.6665 230.014 104.231Z" fill="#C40062" style="fill:#C40062;fill:color(display-p3 0.7686 0.0000 0.3843);fill-opacity:1;"/>
<path d="M100.889 306V214.165H145.757C157.302 214.165 165.96 216.352 171.733 220.725C177.593 225.098 180.523 230.87 180.523 238.042C180.523 242.853 179.342 247.051 176.981 250.637C174.619 254.135 171.383 256.846 167.272 258.771C163.162 260.695 158.439 261.657 153.104 261.657L155.596 256.278C161.369 256.278 166.485 257.24 170.946 259.164C175.406 261.001 178.861 263.756 181.31 267.429C183.846 271.103 185.115 275.607 185.115 280.942C185.115 288.814 182.01 294.98 175.8 299.44C169.59 303.813 160.45 306 148.381 306H100.889ZM122.011 289.994H146.806C152.316 289.994 156.471 289.12 159.27 287.371C162.156 285.534 163.599 282.648 163.599 278.712C163.599 274.864 162.156 272.021 159.27 270.184C156.471 268.26 152.316 267.298 146.806 267.298H120.437V251.817H143.133C148.293 251.817 152.229 250.943 154.94 249.194C157.739 247.357 159.138 244.602 159.138 240.928C159.138 237.343 157.739 234.675 154.94 232.926C152.229 231.089 148.293 230.171 143.133 230.171H122.011V289.994ZM203.829 306V292.225L239.251 258.771C242.05 256.234 244.105 253.96 245.417 251.949C246.729 249.937 247.604 248.1 248.041 246.439C248.566 244.777 248.828 243.246 248.828 241.847C248.828 238.173 247.56 235.375 245.023 233.45C242.575 231.439 238.945 230.433 234.134 230.433C230.286 230.433 226.7 231.176 223.377 232.663C220.141 234.15 217.386 236.468 215.112 239.617L199.631 229.646C203.129 224.398 208.027 220.244 214.324 217.183C220.622 214.121 227.881 212.591 236.102 212.591C242.924 212.591 248.872 213.728 253.945 216.002C259.105 218.188 263.084 221.293 265.883 225.317C268.769 229.34 270.212 234.15 270.212 239.748C270.212 242.721 269.819 245.695 269.032 248.669C268.332 251.555 266.845 254.616 264.571 257.852C262.385 261.088 259.149 264.718 254.863 268.741L225.476 296.423L221.409 288.683H273.23V306H203.829ZM296.955 306V214.165H341.823C353.368 214.165 362.027 216.352 367.799 220.725C373.659 225.098 376.589 230.87 376.589 238.042C376.589 242.853 375.409 247.051 373.047 250.637C370.686 254.135 367.449 256.846 363.339 258.771C359.228 260.695 354.505 261.657 349.17 261.657L351.663 256.278C357.435 256.278 362.552 257.24 367.012 259.164C371.473 261.001 374.927 263.756 377.376 267.429C379.913 271.103 381.181 275.607 381.181 280.942C381.181 288.814 378.076 294.98 371.866 299.44C365.657 303.813 356.517 306 344.447 306H296.955ZM318.077 289.994H342.873C348.383 289.994 352.537 289.12 355.336 287.371C358.222 285.534 359.665 282.648 359.665 278.712C359.665 274.864 358.222 272.021 355.336 270.184C352.537 268.26 348.383 267.298 342.873 267.298H316.503V251.817H339.199C344.36 251.817 348.295 250.943 351.007 249.194C353.805 247.357 355.205 244.602 355.205 240.928C355.205 237.343 353.805 234.675 351.007 232.926C348.295 231.089 344.36 230.171 339.199 230.171H318.077V289.994Z" fill="url(#paint0_linear_393_4921)" style=""/>
<path d="M117.977 177.815V197H113.967V181.112H106.211V197H102.201V177.815H117.977ZM130.017 197V177.815H137.586C139.041 177.815 140.281 178.092 141.305 178.648C142.329 179.198 143.11 179.963 143.647 180.943C144.19 181.918 144.462 183.042 144.462 184.316C144.462 185.59 144.187 186.714 143.638 187.688C143.088 188.663 142.292 189.421 141.249 189.965C140.212 190.508 138.957 190.78 137.483 190.78H132.658V187.529H136.827C137.608 187.529 138.251 187.395 138.757 187.126C139.269 186.851 139.65 186.474 139.9 185.993C140.156 185.506 140.284 184.947 140.284 184.316C140.284 183.679 140.156 183.123 139.9 182.648C139.65 182.167 139.269 181.796 138.757 181.534C138.245 181.265 137.595 181.131 136.808 181.131H134.073V197H130.017ZM155.274 197V177.815H168.202V181.159H159.331V185.73H167.537V189.075H159.331V193.656H168.24V197H155.274ZM186.584 197.262C185.185 197.262 183.939 197.022 182.846 196.541C181.759 196.054 180.901 195.386 180.27 194.536C179.645 193.681 179.324 192.694 179.305 191.576H183.389C183.414 192.044 183.567 192.457 183.848 192.813C184.136 193.162 184.517 193.434 184.991 193.628C185.466 193.821 186 193.918 186.593 193.918C187.212 193.918 187.758 193.809 188.233 193.59C188.707 193.372 189.079 193.069 189.347 192.681C189.616 192.294 189.75 191.848 189.75 191.342C189.75 190.83 189.607 190.377 189.319 189.983C189.038 189.584 188.632 189.271 188.101 189.047C187.577 188.822 186.952 188.709 186.228 188.709H184.439V185.73H186.228C186.84 185.73 187.38 185.624 187.849 185.412C188.323 185.2 188.692 184.906 188.954 184.531C189.216 184.15 189.347 183.707 189.347 183.201C189.347 182.72 189.232 182.299 189.001 181.936C188.776 181.568 188.457 181.281 188.045 181.075C187.639 180.868 187.165 180.765 186.621 180.765C186.072 180.765 185.569 180.865 185.113 181.065C184.657 181.259 184.292 181.537 184.017 181.899C183.742 182.261 183.596 182.686 183.577 183.173H179.689C179.708 182.068 180.023 181.093 180.635 180.25C181.247 179.407 182.072 178.748 183.108 178.274C184.151 177.793 185.329 177.552 186.64 177.552C187.964 177.552 189.123 177.793 190.116 178.274C191.109 178.754 191.88 179.404 192.429 180.222C192.985 181.034 193.26 181.946 193.254 182.958C193.26 184.032 192.926 184.928 192.251 185.646C191.583 186.364 190.712 186.82 189.638 187.014V187.164C191.049 187.345 192.123 187.835 192.86 188.634C193.604 189.428 193.972 190.421 193.966 191.613C193.972 192.706 193.657 193.678 193.02 194.527C192.389 195.376 191.518 196.044 190.406 196.532C189.294 197.019 188.02 197.262 186.584 197.262ZM205.172 197V177.815H218.099V181.159H209.228V185.73H217.434V189.075H209.228V193.656H218.137V197H205.172ZM229.502 197V177.815H233.558V185.73H241.793V177.815H245.84V197H241.793V189.075H233.558V197H229.502ZM256.631 181.159V177.815H272.388V181.159H266.514V197H262.505V181.159H256.631ZM284.123 197H279.777L286.4 177.815H291.627L298.241 197H293.894L289.088 182.199H288.938L284.123 197ZM283.852 189.459H294.119V192.625H283.852V189.459ZM327.211 193.759L326.976 201.534H323.117V197H321.768V193.759H327.211ZM308.728 197V177.815H312.625V193.74H320.606V177.815H324.55V197H308.728ZM337.85 177.815H341.897V189.88H342.056L350.347 177.815H353.897V197H349.841V184.925H349.7L341.363 197H337.85V177.815ZM380.152 197H376.106V181.131H373.37C372.589 181.131 371.94 181.246 371.422 181.477C370.909 181.702 370.525 182.033 370.269 182.47C370.013 182.908 369.885 183.445 369.885 184.082C369.885 184.712 370.013 185.24 370.269 185.665C370.525 186.09 370.909 186.408 371.422 186.62C371.934 186.833 372.577 186.939 373.351 186.939H377.754V190.199H372.696C371.228 190.199 369.973 189.955 368.93 189.468C367.887 188.981 367.091 188.282 366.541 187.37C365.991 186.452 365.717 185.356 365.717 184.082C365.717 182.814 365.985 181.712 366.522 180.775C367.066 179.832 367.849 179.104 368.874 178.592C369.904 178.074 371.144 177.815 372.593 177.815H380.152V197ZM369.801 188.269H374.176L369.511 197H365.033L369.801 188.269Z" fill="url(#paint1_linear_393_4921)" style=""/>
<defs>
<filter id="filter0_ddd_393_4921" x="0.696995" y="0.696995" width="478.426" height="478.426" filterUnits="userSpaceOnUse" color-interpolation-filters="sRGB">
<feFlood flood-opacity="0" result="BackgroundImageFix"/>
<feColorMatrix in="SourceAlpha" type="matrix" values="0 0 0 0 0 0 0 0 0 0 0 0 0 0 0 0 0 0 127 0" result="hardAlpha"/>
<feOffset/>
<feGaussianBlur stdDeviation="9.4606"/>
<feComposite in2="hardAlpha" operator="out"/>
<feColorMatrix type="matrix" values="0 0 0 0 0.159444 0 0 0 0 0.5576 0 0 0 0 0.683333 0 0 0 0.8 0"/>
<feBlend mode="normal" in2="BackgroundImageFix" result="effect1_dropShadow_393_4921"/>
<feColorMatrix in="SourceAlpha" type="matrix" values="0 0 0 0 0 0 0 0 0 0 0 0 0 0 0 0 0 0 127 0" result="hardAlpha"/>
<feOffset/>
<feGaussianBlur stdDeviation="9.4606"/>
<feComposite in2="hardAlpha" operator="out"/>
<feColorMatrix type="matrix" values="0 0 0 0 0.384635 0 0 0 0 0.46376 0 0 0 0 0.879167 0 0 0 0.2 0"/>
<feBlend mode="normal" in2="effect1_dropShadow_393_4921" result="effect2_dropShadow_393_4921"/>
<feColorMatrix in="SourceAlpha" type="matrix" values="0 0 0 0 0 0 0 0 0 0 0 0 0 0 0 0 0 0 127 0" result="hardAlpha"/>
<feOffset/>
<feGaussianBlur stdDeviation="23.6515"/>
<feComposite in2="hardAlpha" operator="out"/>
<feColorMatrix type="matrix" values="0 0 0 0 0.713648 0 0 0 0 0.457188 0 0 0 0 0.870833 0 0 0 0.4 0"/>
<feBlend mode="normal" in2="effect2_dropShadow_393_4921" result="effect3_dropShadow_393_4921"/>
<feBlend mode="normal" in="SourceGraphic" in2="effect3_dropShadow_393_4921" result="shape"/>
</filter>
<linearGradient id="paint0_linear_393_4921" x1="694.458" y1="246.215" x2="495.265" y2="-136.789" gradientUnits="userSpaceOnUse">
<stop stop-color="white" style="stop-color:white;stop-opacity:1;"/>
<stop offset="1" stop-color="white" style="stop-color:white;stop-opacity:1;"/>
</linearGradient>
<linearGradient id="paint1_linear_393_4921" x1="673.929" y1="184.443" x2="663.395" y2="88.2771" gradientUnits="userSpaceOnUse">
<stop stop-color="white" style="stop-color:white;stop-opacity:1;"/>
<stop offset="1" stop-color="white" style="stop-color:white;stop-opacity:1;"/>
</linearGradient>
</defs>
</svg>
