<svg width="670" height="670" viewBox="0 0 670 670" fill="none" xmlns="http://www.w3.org/2000/svg">
<g opacity="0.9" filter="url(#filter0_ddd_357_4894)">
<path d="M120 335C120 216.259 216.259 120 335 120H550V335C550 453.741 453.741 550 335 550C216.259 550 120 453.741 120 335Z" fill="black" style="fill:black;fill-opacity:1;"/>
</g>
<path opacity="0.2" fill-rule="evenodd" clip-rule="evenodd" d="M321.618 170.118C255.021 175.09 198.154 218.973 176.099 282.419C169.72 301.118 167.882 312.899 167.882 336.894C167.99 355.16 168.315 360.24 170.477 369.86C175.45 392.99 183.883 412.878 196.64 431.577C202.802 440.44 205.613 443.79 203.127 439.251C200.424 434.171 194.045 413.418 191.559 401.853C188.207 385.532 186.802 354.188 188.964 341.001C190.586 330.409 196.316 313.98 202.694 301.334C228.317 250.317 270.697 228.052 342.484 228.052C370.701 228.052 389.405 232.591 405.946 243.292C433.839 261.342 442.055 295.93 425.947 327.166C413.514 351.377 383.783 365.428 345.295 365.537H337.835L338.484 380.344C339.24 400.448 342.268 409.744 350.268 415.58C358.701 421.849 388.323 417.201 410.054 406.285C457.407 382.614 490.273 332.787 499.895 270.313C501.193 261.991 501.733 247.507 502.166 214.001L502.706 168.821L417.514 169.037C370.593 169.145 327.456 169.686 321.618 170.118ZM339.351 259.141C338.267 259.572 337.942 268.316 337.942 297.569V335.351L342.601 334.595C354.627 332.76 365.461 323.477 370.554 310.631C374.129 301.563 374.129 285.156 370.662 277.276C367.737 270.907 360.694 263.566 355.169 261.299C350.835 259.464 341.409 258.277 339.351 259.141ZM207.461 348.446C215.127 312.551 237.693 280.439 265.226 266.708L273.864 262.383L274.404 336.769L274.944 411.155L277.643 417.859C281.206 426.508 286.173 433.536 291.787 437.645C300.641 444.024 318.024 447.375 343.182 447.375C393.065 447.375 426.212 433.752 461.195 398.722C477.93 381.963 488.08 365.313 497.473 338.716L502.116 325.741V333.85C502.44 399.911 465.514 459.485 406.777 487.488C394.036 493.542 383.455 497.11 368.123 500.57C358.406 502.732 354.195 503.057 334.328 503.057C315.109 502.949 310.034 502.624 300.641 500.57C273.648 494.732 248.059 482.298 227.328 464.999C221.39 460.025 220.31 458.404 216.855 449.862C212.104 437.969 206.921 416.67 205.194 402.614C203.466 388.018 204.546 362.286 207.461 348.446Z" fill="white" fill-opacity="0.3" style="fill:white;fill-opacity:0.3;"/>
<defs>
<filter id="filter0_ddd_357_4894" x="70" y="70" width="530" height="530" filterUnits="userSpaceOnUse" color-interpolation-filters="sRGB">
<feFlood flood-opacity="0" result="BackgroundImageFix"/>
<feColorMatrix in="SourceAlpha" type="matrix" values="0 0 0 0 0 0 0 0 0 0 0 0 0 0 0 0 0 0 127 0" result="hardAlpha"/>
<feOffset/>
<feGaussianBlur stdDeviation="10"/>
<feComposite in2="hardAlpha" operator="out"/>
<feColorMatrix type="matrix" values="0 0 0 0 0.159444 0 0 0 0 0.5576 0 0 0 0 0.683333 0 0 0 0.8 0"/>
<feBlend mode="normal" in2="BackgroundImageFix" result="effect1_dropShadow_357_4894"/>
<feColorMatrix in="SourceAlpha" type="matrix" values="0 0 0 0 0 0 0 0 0 0 0 0 0 0 0 0 0 0 127 0" result="hardAlpha"/>
<feOffset/>
<feGaussianBlur stdDeviation="10"/>
<feComposite in2="hardAlpha" operator="out"/>
<feColorMatrix type="matrix" values="0 0 0 0 0.384635 0 0 0 0 0.46376 0 0 0 0 0.879167 0 0 0 0.2 0"/>
<feBlend mode="normal" in2="effect1_dropShadow_357_4894" result="effect2_dropShadow_357_4894"/>
<feColorMatrix in="SourceAlpha" type="matrix" values="0 0 0 0 0 0 0 0 0 0 0 0 0 0 0 0 0 0 127 0" result="hardAlpha"/>
<feOffset/>
<feGaussianBlur stdDeviation="25"/>
<feComposite in2="hardAlpha" operator="out"/>
<feColorMatrix type="matrix" values="0 0 0 0 0.713648 0 0 0 0 0.457188 0 0 0 0 0.870833 0 0 0 0.4 0"/>
<feBlend mode="normal" in2="effect2_dropShadow_357_4894" result="effect3_dropShadow_357_4894"/>
<feBlend mode="normal" in="SourceGraphic" in2="effect3_dropShadow_357_4894" result="shape"/>
</filter>
</defs>
</svg>
