<svg width="18" height="19" viewBox="0 0 18 19" fill="none" xmlns="http://www.w3.org/2000/svg">
<path d="M7.20685 16.7938C6.74984 16.8167 6.76254 17.0808 6.74984 17.472L6.73969 18.2163L6.73715 18.3509C6.75746 18.3535 6.78031 18.356 6.80316 18.3586C7.10784 18.3941 7.41759 18.4144 7.7248 18.4119C7.78828 18.4119 7.84921 18.4119 7.91269 18.4094V18.2747L7.92284 17.3603C7.93046 17.058 7.67149 16.7684 7.20685 16.7938ZM2.25841 5.24609C-0.752803 8.25876 -0.752803 13.1435 2.25841 16.1562C3.14705 17.0453 4.19818 17.6727 5.31786 18.0334C5.3788 15.257 5.18076 15.0588 3.94174 13.8091L3.81987 13.6846C3.74371 13.6084 3.66754 13.5297 3.58375 13.4458C2.71035 12.5568 2.30157 11.6753 2.32696 10.7532C2.3295 10.6745 2.33458 10.5932 2.34473 10.5068C2.42598 9.79557 2.75605 9.18847 3.03533 8.74139C3.47965 8.0276 4.32005 7.19696 5.60477 6.19612C5.75964 6.07419 6.08209 5.82271 6.39946 5.98275C6.48325 6.02593 6.67621 6.16056 6.66605 6.48316C6.66098 6.68638 6.56957 6.9785 6.45532 7.34683L6.40454 7.51448C6.13033 8.39847 5.81296 9.56695 5.77234 9.75747L5.76472 9.78541C5.74441 9.87432 5.72156 9.981 5.71648 10.1055C5.70125 10.6542 6.15064 11.0682 7.05198 11.3324C8.95112 11.8912 9.36751 10.837 9.43099 10.6211C9.497 10.3976 9.63411 9.84383 9.76867 9.30531L9.80929 9.1402C9.92355 8.68805 10.0378 8.22065 10.1267 7.89297C10.2384 7.484 10.439 7.26808 10.7259 7.25284C11.0153 7.23506 11.2463 7.43319 11.4139 7.84471C11.4317 7.89297 11.8862 9.02843 11.9776 9.51615C11.9801 9.53647 11.9877 9.56949 11.9953 9.60506L11.9979 9.61776C12.0639 9.9429 12.2112 10.6846 12.1883 11.4924C12.1705 12.1198 12.0563 12.666 11.8506 13.1308C11.645 13.5957 11.3428 13.9767 10.9493 14.2714C10.6929 14.4619 10.4618 14.6219 10.2739 14.7489C9.38529 15.356 9.01968 15.6075 8.84957 17.1012C8.80894 17.439 8.78101 17.8454 8.76578 18.3408C10.3755 18.1198 11.9293 17.3933 13.1683 16.1537C16.1796 13.141 18 0.412109 18 0.412109C18 0.412109 5.26962 2.23343 2.25841 5.24609ZM10.896 9.83367C10.8427 9.72953 10.6141 10.0674 10.4491 10.4967C10.2714 10.9615 10.0226 11.6143 9.37767 11.8074C9.81945 11.5534 10.0886 11.1597 10.2054 10.7507C10.2765 10.5094 10.411 9.9556 10.5532 9.36882C10.6725 8.88364 10.7944 8.38322 10.8884 8.02506C10.8934 8.0022 10.8985 7.98187 10.9036 7.96155C10.8249 7.7939 10.7639 7.75834 10.7513 7.76088C10.7386 7.76088 10.6751 7.80914 10.6167 8.0276C10.5202 8.38323 10.3882 8.90905 10.2612 9.41708C10.1165 9.99117 9.98194 10.5322 9.91339 10.7685C9.66965 11.5915 8.73531 12.3637 6.90218 11.8252C6.44516 11.6906 6.10748 11.5229 5.85612 11.34C5.25693 11.0225 5.0208 10.2807 5.10713 9.75239C5.20361 9.16306 5.73679 7.41541 5.64539 7.35699C5.57176 7.30872 4.94971 7.67451 4.91163 7.69483L6.12779 6.62033C6.14049 6.56191 6.14811 6.51111 6.14811 6.473V6.45268C6.1151 6.46284 6.04401 6.4984 5.90944 6.60509C4.69074 7.55512 3.86558 8.36544 3.46188 9.01827C3.17752 9.47297 2.84999 10.0826 2.83222 10.7735C2.80937 11.5483 3.17244 12.3078 3.94174 13.0953C4.06869 13.2248 4.18549 13.3417 4.2972 13.4534C5.59461 14.7591 5.88405 15.0487 5.82312 18.0461C5.82312 18.0918 5.82312 18.135 5.82058 18.1833C5.86628 18.196 5.90944 18.2061 5.95514 18.2163C6.00339 18.2265 6.04909 18.2366 6.09733 18.2468C6.12018 18.2519 6.14303 18.2569 6.16588 18.2595C6.17096 18.2595 6.1735 18.262 6.17857 18.262L6.18111 18.1249C6.18111 17.9851 6.18619 17.7895 6.18619 17.7032C6.18873 17.3374 6.25474 17.0808 6.369 16.9056C6.58227 16.583 6.92503 16.5322 7.0469 16.5068C6.67367 16.6566 6.29283 16.7404 6.31822 17.6829L6.32076 18.1503V18.2874C6.34361 18.29 6.36646 18.295 6.38931 18.2976C6.38931 18.2976 6.38931 18.2442 6.38931 18.1604C6.38931 17.8962 6.39946 17.3298 6.44517 17.1545C6.5188 16.8725 6.75238 16.588 7.16623 16.583C7.89999 16.5753 8.13104 16.9437 8.12342 17.3603L8.11327 18.2595V18.2646V18.3992C8.13104 18.3992 8.14881 18.3992 8.16658 18.3967C8.17674 18.3967 8.18436 18.3967 8.19451 18.3941C8.20975 18.3941 8.22498 18.3941 8.24021 18.3916C8.24021 18.3636 8.24021 18.3357 8.24275 18.3052V18.2569V18.2519L8.25291 17.373C8.25291 17.3323 8.26053 17.1494 8.19705 17.0148C8.05741 16.71 7.80859 16.5093 7.27795 16.4864C7.37189 16.4331 7.86191 16.4178 8.0244 16.014C8.12088 15.7777 8.1869 15.3637 8.03964 15.0309C8.00663 14.9547 7.85937 14.8099 7.76289 14.782C8.1742 14.7032 8.5652 14.6854 9.33705 14.2485C10.147 13.7913 10.6852 13.2274 10.9772 12.5237C11.419 11.4848 11.0229 10.0826 10.896 9.83367ZM6.07448 14.8378C6.01862 14.9649 6.07194 15.5618 6.08209 15.6761C6.05924 15.5618 5.92722 14.9166 5.62 14.4746C5.29247 14.0047 4.45208 13.2248 4.4013 13.1766C5.28232 13.7354 5.62254 14.4746 6.78285 14.7185C6.5975 14.7489 6.14557 14.6753 6.07448 14.8378ZM9.87023 13.7583C9.18217 14.3069 8.32146 14.6423 7.44298 14.627C7.00882 14.6194 6.57211 14.5305 6.17857 14.3425C5.82312 14.1749 5.52098 13.9437 5.24423 13.6617C5.57938 13.9107 5.93483 14.1266 6.33091 14.2561C7.15861 14.5203 8.04218 14.4619 8.84703 14.1444C9.58333 13.8548 10.2003 13.3747 10.7335 12.7854C10.4948 13.1562 10.2105 13.4865 9.87023 13.7583Z" fill="#3BC3D3" style="fill:#3BC3D3;fill:color(display-p3 0.2314 0.7647 0.8275);fill-opacity:1;"/>
</svg>
