<svg width="18" height="18" viewBox="0 0 18 18" fill="none" xmlns="http://www.w3.org/2000/svg">
<path d="M7.20685 16.3817C6.74984 16.4045 6.76254 16.6687 6.74984 17.0599L6.73969 17.8042L6.73715 17.9388C6.75746 17.9414 6.78031 17.9439 6.80316 17.9464C7.10784 17.982 7.41759 18.0023 7.7248 17.9998C7.78828 17.9998 7.84921 17.9998 7.91269 17.9972V17.8626L7.92284 16.9481C7.93046 16.6459 7.67149 16.3563 7.20685 16.3817ZM2.25841 4.83398C-0.752803 7.84665 -0.752803 12.7314 2.25841 15.7441C3.14705 16.6332 4.19818 17.2606 5.31786 17.6213C5.3788 14.8449 5.18076 14.6467 3.94174 13.397L3.81987 13.2725C3.74371 13.1963 3.66754 13.1175 3.58375 13.0337C2.71035 12.1446 2.30157 11.2632 2.32696 10.3411C2.3295 10.2624 2.33458 10.1811 2.34473 10.0947C2.42598 9.38346 2.75605 8.77636 3.03533 8.32928C3.47965 7.61549 4.32005 6.78485 5.60477 5.78401C5.75964 5.66208 6.08209 5.4106 6.39946 5.57064C6.48325 5.61382 6.67621 5.74845 6.66605 6.07105C6.66098 6.27427 6.56957 6.56639 6.45532 6.93472L6.40454 7.10237C6.13033 7.98636 5.81296 9.15484 5.77234 9.34536L5.76472 9.3733C5.74441 9.46221 5.72156 9.5689 5.71648 9.69337C5.70125 10.242 6.15064 10.6561 7.05198 10.9203C8.95112 11.4791 9.36751 10.4249 9.43099 10.209C9.497 9.98549 9.63411 9.43172 9.76867 8.8932L9.80929 8.72809C9.92355 8.27594 10.0378 7.80854 10.1267 7.48086C10.2384 7.07189 10.439 6.85597 10.7259 6.84073C11.0153 6.82295 11.2463 7.02108 11.4139 7.4326C11.4317 7.48086 11.8862 8.61632 11.9776 9.10404C11.9801 9.12436 11.9877 9.15738 11.9953 9.19295L11.9979 9.20565C12.0639 9.53079 12.2112 10.2725 12.1883 11.0803C12.1705 11.7077 12.0563 12.2539 11.8506 12.7187C11.645 13.1836 11.3428 13.5646 10.9493 13.8593C10.6929 14.0498 10.4618 14.2098 10.2739 14.3368C9.38529 14.9439 9.01968 15.1954 8.84957 16.689C8.80894 17.0269 8.78101 17.4333 8.76578 17.9287C10.3755 17.7077 11.9293 16.9812 13.1683 15.7416C16.1796 12.7289 18 0 18 0C18 0 5.26962 1.82132 2.25841 4.83398ZM10.896 9.42156C10.8427 9.31742 10.6141 9.65526 10.4491 10.0846C10.2714 10.5494 10.0226 11.2022 9.37767 11.3953C9.81945 11.1413 10.0886 10.7475 10.2054 10.3386C10.2765 10.0973 10.411 9.54349 10.5532 8.95671C10.6725 8.47153 10.7944 7.97112 10.8884 7.61295C10.8934 7.59009 10.8985 7.56977 10.9036 7.54944C10.8249 7.38179 10.7639 7.34623 10.7513 7.34877C10.7386 7.34877 10.6751 7.39703 10.6167 7.61549C10.5202 7.97112 10.3882 8.49694 10.2612 9.00497C10.1165 9.57906 9.98194 10.1201 9.91339 10.3564C9.66965 11.1794 8.73531 11.9516 6.90218 11.4131C6.44516 11.2784 6.10748 11.1108 5.85612 10.9279C5.25693 10.6104 5.0208 9.86864 5.10713 9.34028C5.20361 8.75095 5.73679 7.0033 5.64539 6.94488C5.57176 6.89662 4.94971 7.2624 4.91163 7.28272L6.12779 6.20822C6.14049 6.1498 6.14811 6.099 6.14811 6.06089V6.04057C6.1151 6.05073 6.04401 6.08629 5.90944 6.19298C4.69074 7.14301 3.86558 7.95333 3.46188 8.60616C3.17752 9.06086 2.84999 9.6705 2.83222 10.3614C2.80937 11.1362 3.17244 11.8957 3.94174 12.6832C4.06869 12.8127 4.18549 12.9296 4.2972 13.0413C5.59461 14.347 5.88405 14.6366 5.82312 17.634C5.82312 17.6797 5.82312 17.7229 5.82058 17.7712C5.86628 17.7839 5.90944 17.794 5.95514 17.8042C6.00339 17.8144 6.04909 17.8245 6.09733 17.8347C6.12018 17.8398 6.14303 17.8448 6.16588 17.8474C6.17096 17.8474 6.1735 17.8499 6.17857 17.8499L6.18111 17.7127C6.18111 17.573 6.18619 17.3774 6.18619 17.2911C6.18873 16.9253 6.25474 16.6687 6.369 16.4935C6.58227 16.1708 6.92503 16.12 7.0469 16.0946C6.67367 16.2445 6.29283 16.3283 6.31822 17.2708L6.32076 17.7381V17.8753C6.34361 17.8779 6.36646 17.8829 6.38931 17.8855C6.38931 17.8855 6.38931 17.8321 6.38931 17.7483C6.38931 17.4841 6.39946 16.9177 6.44517 16.7424C6.5188 16.4604 6.75238 16.1759 7.16623 16.1708C7.89999 16.1632 8.13104 16.5316 8.12342 16.9481L8.11327 17.8474V17.8525V17.9871C8.13104 17.9871 8.14881 17.9871 8.16658 17.9845C8.17674 17.9845 8.18436 17.9845 8.19451 17.982C8.20975 17.982 8.22498 17.982 8.24021 17.9795C8.24021 17.9515 8.24021 17.9236 8.24275 17.8931V17.8448V17.8398L8.25291 16.9608C8.25291 16.9202 8.26053 16.7373 8.19705 16.6027C8.05741 16.2979 7.80859 16.0972 7.27795 16.0743C7.37189 16.021 7.86191 16.0057 8.0244 15.6018C8.12088 15.3656 8.1869 14.9516 8.03964 14.6188C8.00663 14.5426 7.85937 14.3978 7.76289 14.3699C8.1742 14.2911 8.5652 14.2733 9.33705 13.8364C10.147 13.3792 10.6852 12.8153 10.9772 12.1116C11.419 11.0727 11.0229 9.6705 10.896 9.42156ZM6.07448 14.4257C6.01862 14.5527 6.07194 15.1497 6.08209 15.264C6.05924 15.1497 5.92722 14.5045 5.62 14.0625C5.29247 13.5926 4.45208 12.8127 4.4013 12.7645C5.28232 13.3233 5.62254 14.0625 6.78285 14.3063C6.5975 14.3368 6.14557 14.2632 6.07448 14.4257ZM9.87023 13.3462C9.18217 13.8948 8.32146 14.2301 7.44298 14.2149C7.00882 14.2073 6.57211 14.1184 6.17857 13.9304C5.82312 13.7627 5.52098 13.5316 5.24423 13.2496C5.57938 13.4986 5.93483 13.7145 6.33091 13.844C7.15861 14.1082 8.04218 14.0498 8.84703 13.7323C9.58333 13.4427 10.2003 12.9626 10.7335 12.3733C10.4948 12.7441 10.2105 13.0744 9.87023 13.3462Z" fill="#C40062" style="fill:#C40062;fill:color(display-p3 0.7686 0.0000 0.3843);fill-opacity:1;"/>
</svg>
