<svg width="61" height="61" viewBox="0 0 61 61" fill="none" xmlns="http://www.w3.org/2000/svg">
<path d="M7.57748 16.2191C-2.52583 26.3273 -2.52583 42.7169 7.57748 52.825C10.5591 55.8081 14.0859 57.9132 17.8426 59.1235C18.0471 49.8079 17.3826 49.1431 13.2255 44.9499L12.8165 44.5322C12.561 44.2766 12.3054 44.0123 12.0243 43.7311C9.09383 40.7481 7.7223 37.7906 7.80749 34.6968C7.81601 34.4326 7.83305 34.1599 7.86712 33.8701C8.13972 31.4837 9.24717 29.4467 10.1842 27.9466C11.675 25.5517 14.4948 22.7647 18.8053 19.4067C19.3249 18.9976 20.4068 18.1538 21.4717 18.6908C21.7528 18.8356 22.4002 19.2874 22.3661 20.3698C22.3491 21.0516 22.0424 22.0317 21.6591 23.2676L21.4887 23.8301C20.5687 26.796 19.5038 30.7166 19.3675 31.3558L19.342 31.4496C19.2738 31.7479 19.1971 32.1058 19.1801 32.5235C19.129 34.3644 20.6368 35.7536 23.661 36.64C30.0331 38.5151 31.4301 34.978 31.6431 34.2536C31.8646 33.5036 32.3246 31.6456 32.7761 29.8387L32.9124 29.2847C33.2958 27.7677 33.6791 26.1994 33.9773 25.1C34.3521 23.7278 35.0251 23.0034 35.9877 22.9522C36.9589 22.8926 37.7341 23.5573 38.2963 24.9381C38.3559 25.1 39.8808 28.9097 40.1875 30.5461C40.196 30.6143 40.2216 30.7251 40.2471 30.8444L40.2556 30.8871C40.4771 31.978 40.9712 34.4667 40.8945 37.177C40.8349 39.2821 40.4516 41.1146 39.7615 42.6742C39.0715 44.2339 38.0578 45.5124 36.7374 46.501C35.877 47.1403 35.1018 47.6772 34.4714 48.1033C31.4898 50.1403 30.2631 50.9841 29.6923 55.9956C29.556 57.1291 29.4623 58.4928 29.4112 60.1548C34.8121 59.4133 40.0256 56.9757 44.1828 52.8165C54.2861 42.7083 60.3941 0 60.3941 0C60.3941 0 17.6808 6.11093 7.57748 16.2191Z" fill="black" style="fill:black;fill-opacity:1;"/>
<path d="M24.8676 54.0978C16.6259 62.3118 18.4175 41.4007 26.6592 49.6146C29.0914 52.0386 21.2521 52.8789 19.6206 54.5041C19.7874 46.9343 18.8139 46.8867 15.4227 43.4792L15.0891 43.1398C14.8807 42.9321 14.6722 42.7174 14.4429 42.4888C12.0524 40.0648 10.9336 37.6616 11.003 35.1475C11.01 34.9328 11.0239 34.7112 11.0517 34.4757C11.2741 32.5365 12.1774 30.8813 12.9419 29.6623C14.158 27.7162 16.4581 25.4515 19.9744 22.7227C20.3983 22.3903 21.2808 21.7046 22.1495 22.141C22.3788 22.2587 22.9069 22.6258 22.8791 23.5053C22.8652 24.0594 22.615 24.8559 22.3023 25.8601L22.1634 26.3172C21.4128 28.7273 20.5442 31.9132 20.433 32.4326L20.4122 32.5088C20.3566 32.7512 20.294 33.0421 20.2801 33.3814C20.2384 34.8774 21.4684 36.0063 23.9354 36.7266C29.1333 38.2503 30.273 35.3761 30.4467 34.7874C30.6274 34.1779 31.0026 32.6681 31.371 31.1998L31.4821 30.7497C31.7948 29.5169 32.1076 28.2425 32.3508 27.3491C32.6565 26.2341 33.2055 25.6454 33.9908 25.6038C34.783 25.5554 35.4153 26.0956 35.874 27.2175C35.9226 27.3491 37.1665 30.4449 37.4167 31.7747C37.4236 31.8301 37.4445 31.9201 37.4653 32.0171L37.4723 32.0517C37.653 32.9382 38.056 34.9605 37.9935 37.1629C37.9448 38.8736 37.6321 40.3626 37.0692 41.63C36.5064 42.8974 35.6794 43.9363 34.6023 44.7397C33.9004 45.2591 33.2681 45.6954 32.7538 46.0417C30.3216 47.697 29.321 48.3826 28.8554 52.455C28.7442 53.3761 28.6677 54.4842 28.626 55.8347C27.6239 58.3018 16.889 56.5813 20.2801 53.2015C28.5218 44.9875 23.2361 53.2015 23.2361 53.2015C23.2361 53.2015 33.1093 45.8839 24.8676 54.0978Z" fill="#3BC3D3" style="fill:#3BC3D3;fill:color(display-p3 0.2314 0.7647 0.8275);fill-opacity:1;"/>
</svg>
