<svg width="280" height="280" viewBox="0 0 280 280" fill="none" xmlns="http://www.w3.org/2000/svg">
<path d="M112.107 254.826C104.998 255.182 105.195 259.291 104.998 265.377L104.84 276.954L104.8 279.048C105.116 279.088 105.471 279.127 105.827 279.167C110.566 279.72 115.385 280.036 120.164 279.997C121.151 279.997 122.099 279.997 123.086 279.957V277.863L123.244 263.638C123.363 258.936 119.334 254.431 112.107 254.826ZM35.1308 75.1953C-11.7103 122.059 -11.7103 198.045 35.1308 244.908C48.9541 258.738 65.305 268.498 82.7223 274.109C83.6702 230.92 80.5896 227.838 61.316 208.397L59.4203 206.461C58.2354 205.276 57.0506 204.051 55.7472 202.747C42.1609 188.917 35.8022 175.205 36.1972 160.862C36.2367 159.637 36.3157 158.372 36.4737 157.029C37.7375 145.965 42.8719 136.521 47.2163 129.567C54.1279 118.463 67.2008 105.542 87.1853 89.9735C89.5945 88.0769 94.6103 84.165 99.5472 86.6544C100.851 87.3261 103.852 89.4203 103.694 94.4386C103.615 97.5998 102.193 102.144 100.416 107.873L99.6262 110.481C95.3607 124.232 90.4239 142.409 89.7919 145.372L89.6735 145.807C89.3575 147.19 89.002 148.85 88.9231 150.786C88.6861 159.321 95.6767 165.762 109.697 169.871C139.24 178.564 145.717 162.166 146.704 158.807C147.731 155.33 149.864 146.716 151.957 138.339L152.589 135.77C154.366 128.737 156.144 121.466 157.526 116.369C159.264 110.007 162.384 106.648 166.847 106.411C171.349 106.135 174.943 109.217 177.55 115.618C177.826 116.369 184.896 134.032 186.318 141.618C186.357 141.935 186.476 142.448 186.594 143.001L186.634 143.199C187.661 148.257 189.951 159.795 189.596 172.36C189.319 182.12 187.542 190.616 184.343 197.847C181.144 205.078 176.444 211.005 170.322 215.589C166.333 218.552 162.739 221.042 159.817 223.017C145.993 232.461 140.306 236.373 137.66 259.607C137.028 264.863 136.594 271.185 136.357 278.89C161.396 275.453 185.567 264.152 204.841 244.869C251.682 198.005 280 0 280 0C280 0 81.9719 28.3316 35.1308 75.1953ZM169.493 146.558C168.664 144.938 165.109 150.193 162.542 156.871C159.777 164.102 155.907 174.257 145.875 177.26C152.747 173.309 156.933 167.184 158.75 160.822C159.856 157.068 161.949 148.454 164.161 139.327C166.017 131.779 167.913 123.995 169.374 118.424C169.453 118.068 169.532 117.752 169.611 117.436C168.387 114.828 167.439 114.275 167.242 114.314C167.044 114.314 166.057 115.065 165.148 118.463C163.648 123.995 161.594 132.175 159.619 140.077C157.368 149.008 155.275 157.424 154.208 161.099C150.417 173.901 135.883 185.914 107.367 177.537C100.258 175.442 95.0053 172.835 91.0953 169.99C81.7744 165.05 78.1014 153.512 79.4442 145.293C80.9451 136.126 89.239 108.94 87.8172 108.031C86.6718 107.281 76.9955 112.971 76.4031 113.287L95.3212 96.5724C95.5187 95.6636 95.6372 94.8733 95.6372 94.2806V93.9645C95.1238 94.1225 94.0179 94.6757 91.9247 96.3353C72.9671 111.114 60.1312 123.719 53.8515 133.874C49.428 140.947 44.3332 150.43 44.0567 161.178C43.7012 173.23 49.349 185.044 61.316 197.294C63.2908 199.309 65.1076 201.127 66.8453 202.865C87.0273 223.175 91.5297 227.68 90.5818 274.307C90.5818 275.018 90.5818 275.69 90.5423 276.44C91.2533 276.638 91.9247 276.796 92.6356 276.954C93.386 277.112 94.0969 277.27 94.8473 277.428C95.2028 277.507 95.5582 277.586 95.9137 277.626C95.9927 277.626 96.0321 277.665 96.1111 277.665L96.1506 275.532C96.1506 273.358 96.2296 270.316 96.2296 268.972C96.2691 263.282 97.296 259.291 99.0733 256.565C102.391 251.547 107.723 250.756 109.618 250.361C103.813 252.692 97.8884 253.996 98.2834 268.656L98.3229 275.927V278.061C98.6783 278.1 99.0338 278.179 99.3892 278.219C99.3892 278.219 99.3892 277.389 99.3892 276.085C99.3892 271.975 99.5472 263.164 100.258 260.437C101.403 256.051 105.037 251.626 111.475 251.547C122.889 251.428 126.483 257.158 126.364 263.638L126.206 277.626V277.705V279.799C126.483 279.799 126.759 279.799 127.036 279.76C127.194 279.76 127.312 279.76 127.47 279.72C127.707 279.72 127.944 279.72 128.181 279.681C128.181 279.246 128.181 278.811 128.221 278.337V277.586V277.507L128.379 263.835C128.379 263.203 128.497 260.358 127.51 258.264C125.337 253.522 121.467 250.401 113.212 250.045C114.674 249.215 122.296 248.978 124.824 242.695C126.325 239.021 127.352 232.58 125.061 227.403C124.548 226.218 122.257 223.966 120.756 223.531C127.154 222.306 133.236 222.03 145.243 215.233C157.842 208.121 166.215 199.348 170.757 188.403C177.629 172.242 171.468 150.43 169.493 146.558ZM94.4919 224.4C93.623 226.376 94.4524 235.662 94.6103 237.44C94.2549 235.662 92.2011 225.625 87.4222 218.75C82.3274 211.44 69.2545 199.309 68.4646 198.558C82.1694 207.251 87.4617 218.75 105.511 222.543C102.628 223.017 95.5977 221.872 94.4919 224.4ZM153.537 207.607C142.834 216.142 129.445 221.358 115.78 221.121C109.026 221.002 102.233 219.619 96.1111 216.695C90.5818 214.087 85.8819 210.491 81.577 206.105C86.7903 209.978 92.3196 213.336 98.4808 215.352C111.356 219.461 125.101 218.552 137.62 213.613C149.074 209.108 158.671 201.64 166.965 192.473C163.253 198.242 158.829 203.379 153.537 207.607Z" fill="black" style="fill:black;fill-opacity:1;"/>
</svg>
