<svg width="213" height="70" viewBox="0 0 213 70" fill="none" xmlns="http://www.w3.org/2000/svg">
<path d="M28.0267 63.7066C26.2494 63.7954 26.2988 64.8228 26.2494 66.3441L26.2099 69.2385L26.2 69.762C26.279 69.7719 26.3679 69.7818 26.4568 69.7917C27.6415 69.93 28.8462 70.0091 30.0409 69.9992C30.2877 69.9992 30.5247 69.9992 30.7715 69.9893V69.4657L30.8111 65.9094C30.8407 64.7339 29.8336 63.6077 28.0267 63.7066ZM8.7827 18.7988C-2.92757 30.5148 -2.92757 49.5111 8.7827 61.227C12.2386 64.6845 16.3263 67.1245 20.6806 68.5273C20.9175 57.73 20.1474 56.9595 15.329 52.0993L14.8551 51.6152C14.5588 51.3189 14.2626 51.0126 13.9368 50.6866C10.5402 47.2291 8.95056 43.8013 9.04931 40.2154C9.0592 39.9092 9.07889 39.5931 9.11837 39.2572C9.43437 36.4912 10.718 34.1303 11.804 32.3916C13.532 29.6158 16.8002 26.3855 21.7963 22.4934C22.3986 22.0192 23.6526 21.0412 24.8868 21.6636C25.2126 21.8316 25.9631 22.3551 25.9236 23.6097C25.9038 24.3999 25.5483 25.536 25.104 26.9683L24.9065 27.6203C23.8402 31.058 22.6059 35.6022 22.448 36.3431L22.4183 36.4517C22.3394 36.7975 22.2505 37.2123 22.2307 37.6964C22.1715 39.8302 23.9192 41.4404 27.4244 42.4677C34.8099 44.641 36.4292 40.5414 36.6761 39.7018C36.9327 38.8324 37.4659 36.6789 37.9893 34.5847L38.1473 33.9426C38.5915 32.1842 39.0359 30.3666 39.3814 29.0922C39.8159 27.5018 40.5959 26.6621 41.7117 26.6029C42.8373 26.5337 43.7358 27.3042 44.3875 28.9045C44.4565 29.0922 46.224 33.5079 46.5794 35.4046C46.5893 35.4837 46.6189 35.6121 46.6486 35.7504L46.6584 35.7998C46.9151 37.0642 47.4878 39.9487 47.3989 43.0901C47.3299 45.5301 46.8855 47.654 46.0857 49.4617C45.2859 51.2695 44.111 52.7513 42.5806 53.8972C41.5833 54.6381 40.6848 55.2604 39.9542 55.7544C36.4983 58.1153 35.0765 59.0932 34.415 64.9019C34.257 66.2157 34.1483 67.7962 34.0892 69.7226C40.3491 68.8631 46.3919 66.0378 51.2102 61.2171C62.9205 49.5012 70 0 70 0C70 0 20.493 7.08289 8.7827 18.7988ZM42.3732 36.6394C42.1658 36.2344 41.2772 37.5482 40.6355 39.2177C39.9443 41.0255 38.9767 43.5643 36.4687 44.315C38.1868 43.3271 39.2333 41.796 39.6876 40.2055C39.964 39.267 40.4874 37.1136 41.0402 34.8316C41.5043 32.9449 41.9783 30.9988 42.3436 29.6059C42.3633 29.517 42.3831 29.438 42.4028 29.3589C42.0968 28.707 41.8598 28.5687 41.8105 28.5786C41.7611 28.5786 41.5142 28.7662 41.2871 29.6158C40.9119 30.9988 40.3984 33.0436 39.9048 35.0194C39.342 37.2519 38.8187 39.356 38.5521 40.2747C37.6042 43.4753 33.9707 46.4784 26.8418 44.3841C25.0645 43.8606 23.7513 43.2086 22.7738 42.4974C20.4436 41.2625 19.5254 38.378 19.8611 36.3233C20.2363 34.0314 22.3098 27.2351 21.9543 27.0078C21.668 26.8201 19.2489 28.2427 19.1008 28.3217L23.8303 24.1431C23.8796 23.9159 23.9093 23.7183 23.9093 23.5701V23.4911C23.7809 23.5306 23.5045 23.6689 22.9812 24.0839C18.2418 27.7784 15.0328 30.9296 13.4629 33.4684C12.357 35.2366 11.0833 37.6075 11.0142 40.2945C10.9253 43.3074 12.3373 46.2611 15.329 49.3234C15.8227 49.8272 16.2769 50.2816 16.7113 50.7163C21.7568 55.7938 22.8824 56.92 22.6455 68.5766C22.6455 68.7544 22.6455 68.9224 22.6356 69.1101C22.8133 69.1594 22.9812 69.199 23.1589 69.2385C23.3465 69.278 23.5242 69.3175 23.7118 69.357C23.8007 69.3768 23.8895 69.3966 23.9784 69.4065C23.9982 69.4065 24.0081 69.4163 24.0277 69.4163L24.0376 68.8829C24.0376 68.3396 24.0574 67.5789 24.0574 67.243C24.0673 65.8206 24.324 64.8228 24.7683 64.1412C25.5977 62.8866 26.9307 62.689 27.4046 62.5903C25.9532 63.1731 24.4721 63.4991 24.5708 67.164L24.5807 68.9817V69.5151C24.6696 69.525 24.7584 69.5448 24.8473 69.5546C24.8473 69.5546 24.8473 69.3472 24.8473 69.0211C24.8473 67.9938 24.8868 65.7909 25.0645 65.1093C25.3508 64.0128 26.2593 62.9064 27.8687 62.8866C30.7221 62.8569 31.6207 64.2894 31.5911 65.9094L31.5515 69.4065V69.4262V69.9497C31.6207 69.9497 31.6898 69.9497 31.7589 69.9399C31.7984 69.9399 31.8281 69.9399 31.8675 69.93C31.9268 69.93 31.9861 69.93 32.0452 69.9201C32.0452 69.8115 32.0452 69.7028 32.0551 69.5842V69.3966V69.3768L32.0946 65.9589C32.0946 65.8008 32.1243 65.0895 31.8774 64.566C31.3344 63.3806 30.3668 62.6001 28.3031 62.5113C28.6684 62.3038 30.574 62.2445 31.206 60.6738C31.5812 59.7551 31.838 58.145 31.2652 56.8508C31.1369 56.5545 30.5642 55.9914 30.189 55.8828C31.7886 55.5765 33.3091 55.5073 36.3107 53.8083C39.4605 52.0301 41.5537 49.8371 42.6892 47.1007C44.4072 43.0604 42.8669 37.6075 42.3732 36.6394ZM23.623 56.1C23.4057 56.594 23.6131 58.9155 23.6526 59.36C23.5637 58.9155 23.0502 56.4063 21.8556 54.6875C20.5819 52.8599 17.3136 49.8272 17.1162 49.6395C20.5424 51.8128 21.8655 54.6875 26.3777 55.6357C25.6569 55.7544 23.8994 55.4679 23.623 56.1ZM38.3842 51.9017C35.7084 54.0355 32.3612 55.3394 28.9449 55.2802C27.2565 55.2505 25.5582 54.9047 24.0277 54.1738C22.6455 53.5218 21.4705 52.6228 20.3943 51.5263C21.6976 52.4944 23.0799 53.3341 24.6202 53.8379C27.839 54.8653 31.2751 54.6381 34.4051 53.4032C37.2685 52.2771 39.6678 50.41 41.7413 48.1182C40.8132 49.5605 39.7073 50.8447 38.3842 51.9017Z" fill="white" style="fill:white;fill-opacity:1;"/>
<path d="M86 50.6065L86.525 18.8499H93.378L97.405 39.1105L101.645 18.8499H108.298L108.823 50.6065H104.058L103.621 29.1788L99.469 50.6065H95.492L91.227 29.0671L90.827 50.6065H86Z" fill="white" style="fill:white;fill-opacity:1;"/>
<path d="M113.238 50.6062V27.9247H119.203V31.5622C120.616 28.9427 122.179 27.6392 123.868 27.6392C124.143 27.6392 124.43 27.6888 124.731 27.7757V33.2754C124.293 33.1264 123.818 33.0395 123.317 33.0395C122.454 33.0768 121.704 33.3002 121.054 33.6975C120.404 34.0948 119.778 34.7403 119.19 35.6093V50.6062H113.238Z" fill="white" style="fill:white;fill-opacity:1;"/>
<path d="M124.505 47.7633V47.7385C124.505 46.1618 125.794 44.8955 127.369 44.8955C128.958 44.8955 130.233 46.1742 130.233 47.7385V47.7633C130.233 49.3399 128.945 50.6062 127.369 50.6062C125.781 50.6062 124.505 49.3399 124.505 47.7633Z" fill="white" style="fill:white;fill-opacity:1;"/>
<path d="M137.086 50.6065V18.8499H145.19C146.378 18.8499 147.429 18.9243 148.367 19.0609C149.305 19.1975 150.205 19.4582 151.068 19.8182C151.931 20.1782 152.656 20.6624 153.219 21.2707C153.782 21.879 154.232 22.6611 154.545 23.6419C154.857 24.5854 155.008 25.6779 155.008 26.9194C155.008 26.969 155.008 27.0187 155.008 27.0683C154.957 30.892 153.394 33.0398 150.318 33.5363C154.045 34.1074 155.933 36.6897 155.97 41.2707C155.97 41.3451 155.97 41.4196 155.97 41.4817C155.97 44.4736 155.183 46.7331 153.619 48.2601C152.006 49.8243 149.68 50.594 146.641 50.594L137.086 50.6065ZM143.59 31.6742H145.153C146.766 31.6742 147.854 31.3265 148.454 30.6189C149.042 29.9113 149.342 28.7691 149.342 27.1925C149.342 25.7276 148.955 24.6971 148.192 24.1261C147.429 23.555 146.216 23.2695 144.578 23.2695H143.59V31.6742ZM143.59 46.0751H145.365C147.004 46.0751 148.129 45.6903 148.767 44.9206C149.405 44.1509 149.717 42.9218 149.717 41.2086C149.717 39.3588 149.367 38.0304 148.68 37.2483C147.992 36.4538 146.816 36.0565 145.153 36.0565H143.577L143.59 46.0751Z" fill="white" style="fill:white;fill-opacity:1;"/>
<path d="M166.601 50.9913C164.137 50.9913 162.236 50.3334 160.923 49.005C159.61 47.689 158.959 45.7896 158.959 43.3067V35.2248C158.959 32.7667 159.61 30.8672 160.923 29.5513C162.236 28.2353 164.124 27.5649 166.601 27.5649C169.077 27.5649 170.99 28.2229 172.316 29.5513C173.641 30.8672 174.317 32.7667 174.317 35.2248V43.3067C174.317 45.7648 173.654 47.6642 172.316 48.9926C170.99 50.3334 169.089 50.9913 166.601 50.9913ZM166.626 46.9317C167.338 46.9317 167.814 46.6586 168.051 46.1124C168.301 45.5661 168.414 44.7716 168.414 43.7288V34.8275C168.414 33.7723 168.289 32.9653 168.051 32.4191C167.801 31.8728 167.326 31.5997 166.626 31.5997C165.925 31.5997 165.463 31.8728 165.225 32.4315C164.987 32.9901 164.862 33.7847 164.862 34.8151V43.7164C164.862 44.7468 164.987 45.5413 165.225 46.0876C165.463 46.6586 165.925 46.9317 166.626 46.9317Z" fill="white" style="fill:white;fill-opacity:1;"/>
<path d="M177.969 50.6062V27.9247H183.934V30.1593C185.772 28.4213 187.623 27.5522 189.487 27.5522C190.812 27.5522 191.813 28.0364 192.475 28.9923C193.138 29.9607 193.476 31.1773 193.476 32.6422V50.5814H187.498V33.7223C187.498 33.1016 187.398 32.6298 187.21 32.3195C187.023 32.0091 186.66 31.8725 186.135 31.885C185.522 31.885 184.784 32.1829 183.934 32.7912V50.6186L177.969 50.6062Z" fill="white" style="fill:white;fill-opacity:1;"/>
<path d="M202.493 50.9913C198.866 50.9913 197.053 48.4587 197.053 43.406V35.3861C197.053 33.8715 197.228 32.5432 197.578 31.401C197.928 30.2589 198.516 29.3402 199.341 28.6326C200.167 27.9249 201.205 27.5649 202.455 27.5649C203.956 27.5649 205.382 28.1484 206.72 29.3278V18.8499H212.685V50.6065H206.72V48.9553C205.369 50.3085 203.956 50.9789 202.493 50.9913ZM204.869 47.0062C205.394 47.0062 206.019 46.82 206.72 46.4351V32.0466C206.082 31.6617 205.457 31.4755 204.869 31.4755C204.231 31.4755 203.756 31.7486 203.468 32.2949C203.18 32.8411 203.03 33.5364 203.03 34.393V43.8157C203.03 45.951 203.643 47.0062 204.869 47.0062Z" fill="white" style="fill:white;fill-opacity:1;"/>
</svg>
