<svg width="232" height="78" viewBox="0 0 232 78" fill="none" xmlns="http://www.w3.org/2000/svg">
<path d="M31.1662 70.8429C29.1898 70.9417 29.2447 72.0842 29.1898 73.7759L29.1459 76.9945L29.1349 77.5767C29.2227 77.5877 29.3216 77.5987 29.4204 77.6097C30.7379 77.7635 32.0775 77.8514 33.406 77.8404C33.6805 77.8404 33.944 77.8404 34.2185 77.8294V77.2472L34.2625 73.2925C34.2954 71.9853 33.1755 70.733 31.1662 70.8429ZM9.76653 20.9046C-3.25551 33.933 -3.25551 55.0573 9.76653 68.0856C13.6095 71.9304 18.1551 74.6437 22.9972 76.2036C23.2607 64.1969 22.4043 63.34 17.0461 57.9354L16.5191 57.3971C16.1897 57.0676 15.8603 56.727 15.498 56.3645C11.7209 52.5197 9.95319 48.7079 10.063 44.7203C10.074 44.3798 10.0959 44.0283 10.1398 43.6548C10.4912 40.5789 11.9186 37.9535 13.1263 36.0201C15.0478 32.9333 18.6821 29.3412 24.2379 25.0131C24.9077 24.4858 26.3021 23.3982 27.6746 24.0903C28.0369 24.2771 28.8714 24.8593 28.8275 26.2544C28.8055 27.1332 28.4102 28.3965 27.9161 29.9893L27.6965 30.7143C26.5107 34.5371 25.1382 39.5903 24.9626 40.4142L24.9296 40.535C24.8418 40.9195 24.743 41.3808 24.721 41.9191C24.6551 44.2919 26.5986 46.0825 30.4964 47.2249C38.7093 49.6416 40.51 45.0828 40.7845 44.1491C41.0699 43.1824 41.6628 40.7876 42.2448 38.4588L42.4205 37.7448C42.9145 35.7894 43.4086 33.7682 43.7929 32.3511C44.276 30.5825 45.1434 29.6488 46.3842 29.5829C47.6359 29.506 48.635 30.3628 49.3597 32.1424C49.4365 32.3511 51.4019 37.2614 51.7972 39.3706C51.8082 39.4585 51.8411 39.6013 51.8741 39.7551L51.885 39.81C52.1705 41.2161 52.8073 44.4237 52.7085 47.917C52.6317 50.6303 52.1376 52.9921 51.2482 55.0024C50.3588 57.0126 49.0523 58.6604 47.3504 59.9347C46.2414 60.7586 45.2423 61.4506 44.4298 61.9999C40.5868 64.6253 39.0057 65.7128 38.2701 72.1721C38.0944 73.6331 37.9736 75.3907 37.9078 77.5328C44.8689 76.5771 51.5886 73.4353 56.9467 68.0746C69.9688 55.0463 77.8413 0 77.8413 0C77.8413 0 22.7886 7.87631 9.76653 20.9046ZM47.1198 40.7437C46.8892 40.2933 45.901 41.7543 45.1874 43.6108C44.4188 45.6211 43.3428 48.4443 40.5539 49.2791C42.4644 48.1806 43.6282 46.4779 44.1333 44.7093C44.4407 43.6657 45.0227 41.271 45.6375 38.7334C46.1536 36.6353 46.6806 34.4712 47.0869 32.9223C47.1088 32.8235 47.1308 32.7356 47.1527 32.6477C46.8124 31.9227 46.5489 31.7689 46.494 31.7799C46.4391 31.7799 46.1646 31.9886 45.912 32.9333C45.4948 34.4712 44.9238 36.7451 44.3749 38.9422C43.749 41.4248 43.1671 43.7646 42.8706 44.7862C41.8166 48.3454 37.776 51.6849 29.8486 49.356C27.8722 48.7738 26.4119 48.0488 25.3249 47.2579C22.7337 45.8847 21.7126 42.6771 22.0859 40.3922C22.5031 37.8436 24.8089 30.2859 24.4136 30.0332C24.0952 29.8245 21.4051 31.4064 21.2404 31.4943L26.4997 26.8476C26.5546 26.5949 26.5876 26.3752 26.5876 26.2104V26.1226C26.4448 26.1665 26.1374 26.3203 25.5555 26.7817C20.2852 30.8901 16.7167 34.3943 14.971 37.2175C13.7412 39.1838 12.3248 41.8203 12.248 44.8082C12.1491 48.1586 13.7193 51.4432 17.0461 54.8486C17.5951 55.4088 18.1002 55.9141 18.5833 56.3975C24.194 62.0438 25.4457 63.2961 25.1822 76.2585C25.1822 76.4562 25.1822 76.643 25.1712 76.8517C25.3688 76.9066 25.5555 76.9506 25.7531 76.9945C25.9617 77.0385 26.1594 77.0824 26.368 77.1263C26.4668 77.1483 26.5656 77.1703 26.6644 77.1813C26.6864 77.1813 26.6974 77.1922 26.7193 77.1922L26.7303 76.5991C26.7303 75.9949 26.7523 75.149 26.7523 74.7755C26.7633 73.1937 27.0487 72.0842 27.5428 71.3262C28.4651 69.9311 29.9474 69.7114 30.4744 69.6016C28.8604 70.2497 27.2134 70.6122 27.3232 74.6876L27.3342 76.7089V77.3021C27.433 77.3131 27.5318 77.3351 27.6307 77.346C27.6307 77.346 27.6307 77.1154 27.6307 76.7528C27.6307 75.6104 27.6746 73.1607 27.8722 72.4028C28.1906 71.1834 29.2008 69.9531 30.9905 69.9311C34.1636 69.8981 35.1628 71.491 35.1299 73.2925L35.0859 77.1813V77.2032V77.7854C35.1628 77.7854 35.2397 77.7854 35.3165 77.7745C35.3604 77.7745 35.3934 77.7745 35.4373 77.7635C35.5032 77.7635 35.5691 77.7635 35.6349 77.7525C35.6349 77.6317 35.6349 77.5108 35.6459 77.379V77.1703V77.1483L35.6898 73.3475C35.6898 73.1717 35.7228 72.3808 35.4483 71.7986C34.8444 70.4804 33.7684 69.6125 31.4736 69.5137C31.8798 69.283 33.9989 69.2171 34.7017 67.4704C35.1189 66.4488 35.4044 64.6583 34.7675 63.2192C34.6248 62.8897 33.988 62.2635 33.5707 62.1427C35.3495 61.8021 37.0403 61.7252 40.3782 59.8358C43.8808 57.8585 46.2085 55.4198 47.4712 52.3769C49.3816 47.884 47.6688 41.8202 47.1198 40.7437ZM26.2692 62.3843C26.0276 62.9336 26.2582 65.5151 26.3021 66.0094C26.2033 65.5151 25.6323 62.7249 24.3038 60.8135C22.8874 58.7812 19.2531 55.4088 19.0335 55.2001C22.8435 57.6168 24.3148 60.8135 29.3325 61.868C28.531 61.9999 26.5766 61.6813 26.2692 62.3843ZM42.684 57.7157C39.7084 60.0885 35.9863 61.5385 32.1873 61.4726C30.3097 61.4396 28.4212 61.0551 26.7193 60.2423C25.1822 59.5172 23.8756 58.5176 22.6788 57.2982C24.1281 58.3748 25.6653 59.3085 27.3781 59.8688C30.9575 61.0112 34.7785 60.7586 38.2591 59.3854C41.4433 58.1331 44.1113 56.0569 46.4171 53.5084C45.385 55.1122 44.1553 56.5403 42.684 57.7157Z" fill="white" style="fill:white;fill-opacity:1;"/>
<path d="M105.315 54.6065L105.84 22.8499H112.693L116.72 43.1105L120.96 22.8499H127.613L128.138 54.6065H123.373L122.936 33.1788L118.784 54.6065H114.807L110.542 33.0671L110.142 54.6065H105.315Z" fill="white" style="fill:white;fill-opacity:1;"/>
<path d="M132.553 54.6062V31.9247H138.518V35.5622C139.931 32.9427 141.494 31.6392 143.183 31.6392C143.458 31.6392 143.745 31.6888 144.046 31.7757V37.2754C143.608 37.1264 143.133 37.0395 142.632 37.0395C141.769 37.0768 141.019 37.3002 140.369 37.6975C139.719 38.0948 139.093 38.7403 138.505 39.6093V54.6062H132.553Z" fill="white" style="fill:white;fill-opacity:1;"/>
<path d="M143.82 51.7633V51.7385C143.82 50.1618 145.109 48.8955 146.684 48.8955C148.273 48.8955 149.548 50.1742 149.548 51.7385V51.7633C149.548 53.3399 148.26 54.6062 146.684 54.6062C145.096 54.6062 143.82 53.3399 143.82 51.7633Z" fill="white" style="fill:white;fill-opacity:1;"/>
<path d="M156.401 54.6065V22.8499H164.505C165.693 22.8499 166.744 22.9243 167.682 23.0609C168.62 23.1975 169.52 23.4582 170.383 23.8182C171.246 24.1782 171.971 24.6624 172.534 25.2707C173.097 25.879 173.547 26.6611 173.86 27.6419C174.172 28.5854 174.323 29.6779 174.323 30.9194C174.323 30.969 174.323 31.0187 174.323 31.0683C174.272 34.892 172.709 37.0398 169.633 37.5363C173.36 38.1074 175.248 40.6897 175.285 45.2707C175.285 45.3451 175.285 45.4196 175.285 45.4817C175.285 48.4736 174.498 50.7331 172.934 52.2601C171.321 53.8243 168.995 54.594 165.956 54.594L156.401 54.6065ZM162.905 35.6742H164.468C166.081 35.6742 167.169 35.3265 167.769 34.6189C168.357 33.9113 168.657 32.7691 168.657 31.1925C168.657 29.7276 168.27 28.6971 167.507 28.1261C166.744 27.555 165.531 27.2695 163.893 27.2695H162.905V35.6742ZM162.905 50.0751H164.68C166.319 50.0751 167.444 49.6903 168.082 48.9206C168.72 48.1509 169.032 46.9218 169.032 45.2086C169.032 43.3588 168.682 42.0304 167.995 41.2483C167.307 40.4538 166.131 40.0565 164.468 40.0565H162.892L162.905 50.0751Z" fill="white" style="fill:white;fill-opacity:1;"/>
<path d="M185.916 54.9913C183.452 54.9913 181.551 54.3334 180.238 53.005C178.925 51.689 178.274 49.7896 178.274 47.3067V39.2248C178.274 36.7667 178.925 34.8672 180.238 33.5513C181.551 32.2353 183.439 31.5649 185.916 31.5649C188.392 31.5649 190.305 32.2229 191.631 33.5513C192.956 34.8672 193.632 36.7667 193.632 39.2248V47.3067C193.632 49.7648 192.969 51.6642 191.631 52.9926C190.305 54.3334 188.404 54.9913 185.916 54.9913ZM185.941 50.9317C186.653 50.9317 187.129 50.6586 187.366 50.1124C187.616 49.5661 187.729 48.7716 187.729 47.7288V38.8275C187.729 37.7723 187.604 36.9653 187.366 36.4191C187.116 35.8728 186.641 35.5997 185.941 35.5997C185.24 35.5997 184.778 35.8728 184.54 36.4315C184.302 36.9901 184.177 37.7847 184.177 38.8151V47.7164C184.177 48.7468 184.302 49.5413 184.54 50.0876C184.778 50.6586 185.24 50.9317 185.941 50.9317Z" fill="white" style="fill:white;fill-opacity:1;"/>
<path d="M197.284 54.6062V31.9247H203.249V34.1593C205.087 32.4213 206.938 31.5522 208.802 31.5522C210.127 31.5522 211.128 32.0364 211.79 32.9923C212.453 33.9607 212.791 35.1773 212.791 36.6422V54.5814H206.813V37.7223C206.813 37.1016 206.713 36.6298 206.525 36.3195C206.338 36.0091 205.975 35.8725 205.45 35.885C204.837 35.885 204.099 36.1829 203.249 36.7912V54.6186L197.284 54.6062Z" fill="white" style="fill:white;fill-opacity:1;"/>
<path d="M221.808 54.9913C218.181 54.9913 216.368 52.4587 216.368 47.406V39.3861C216.368 37.8715 216.543 36.5432 216.893 35.401C217.243 34.2589 217.831 33.3402 218.656 32.6326C219.482 31.9249 220.52 31.5649 221.77 31.5649C223.271 31.5649 224.697 32.1484 226.035 33.3278V22.8499H232V54.6065H226.035V52.9553C224.684 54.3085 223.271 54.9789 221.808 54.9913ZM224.184 51.0062C224.709 51.0062 225.334 50.82 226.035 50.4351V36.0466C225.397 35.6617 224.772 35.4755 224.184 35.4755C223.546 35.4755 223.071 35.7486 222.783 36.2949C222.495 36.8411 222.345 37.5364 222.345 38.393V47.8157C222.345 49.951 222.958 51.0062 224.184 51.0062Z" fill="white" style="fill:white;fill-opacity:1;"/>
</svg>
