<svg width="668" height="669" viewBox="0 0 668 669" fill="none" xmlns="http://www.w3.org/2000/svg">
<g filter="url(#filter0_d_368_12188)">
<path d="M173.7 494.082C102.1 422.506 102.1 306.451 173.7 234.874C245.3 163.298 548 120.026 548 120.026C548 120.026 504.714 422.446 433.114 494.022C403.653 523.473 366.706 540.734 328.431 545.984C328.442 545.63 328.453 545.278 328.464 544.928C300.143 552.705 264.42 544.19 246.954 537.477L246.483 537.007C246.471 537.561 246.459 538.119 246.447 538.682C219.823 530.112 194.83 515.205 173.7 494.082Z" fill="black" style="fill:black;fill-opacity:1;"/>
</g>
<path opacity="0.05" d="M303.124 470.241C294.872 470.661 295.101 475.519 294.872 482.713L294.689 496.399L294.643 498.875C295.01 498.922 295.422 498.968 295.835 499.015C301.336 499.669 306.929 500.043 312.476 499.996C313.622 499.996 314.722 499.996 315.868 499.949V497.474L316.051 480.658C316.189 475.099 311.513 469.774 303.124 470.241ZM213.777 257.892C159.408 313.291 159.408 403.117 213.777 458.516C229.822 474.865 248.8 486.403 269.017 493.036C270.117 441.981 266.542 438.337 244.17 415.355L241.97 413.066C240.595 411.665 239.219 410.217 237.707 408.676C221.937 392.327 214.556 376.118 215.015 359.162C215.06 357.714 215.152 356.219 215.335 354.631C216.802 341.551 222.762 330.387 227.805 322.166C235.827 309.04 251.001 293.766 274.197 275.362C276.994 273.119 282.816 268.495 288.546 271.438C290.059 272.232 293.543 274.708 293.359 280.64C293.268 284.377 291.617 289.749 289.554 296.522L288.638 299.605C283.687 315.86 277.956 337.347 277.223 340.851L277.085 341.365C276.719 342.999 276.306 344.961 276.214 347.25C275.939 357.34 284.053 364.954 300.327 369.812C334.618 380.088 342.136 360.703 343.282 356.733C344.474 352.622 346.949 342.439 349.379 332.536L350.112 329.5C352.175 321.185 354.238 312.59 355.843 306.565C357.86 299.044 361.481 295.074 366.661 294.793C371.887 294.466 376.059 298.11 379.085 305.677C379.406 306.565 387.611 327.445 389.262 336.413C389.308 336.787 389.445 337.394 389.583 338.048L389.628 338.282C390.82 344.261 393.479 357.9 393.067 372.755C392.746 384.292 390.683 394.335 386.97 402.883C383.256 411.432 377.801 418.438 370.696 423.857C366.065 427.36 361.894 430.303 358.501 432.638C342.457 443.802 335.855 448.427 332.784 475.893C332.05 482.106 331.546 489.579 331.271 498.688C360.335 494.624 388.391 481.265 410.762 458.47C465.131 403.07 498 169 498 169C498 169 268.146 202.492 213.777 257.892ZM369.733 342.252C368.77 340.337 364.644 346.55 361.665 354.444C358.456 362.992 353.963 374.997 342.319 378.547C350.296 373.876 355.155 366.635 357.264 359.115C358.547 354.677 360.977 344.494 363.544 333.704C365.699 324.782 367.899 315.58 369.595 308.994C369.687 308.573 369.779 308.2 369.87 307.826C368.449 304.743 367.349 304.089 367.12 304.136C366.891 304.136 365.745 305.023 364.69 309.04C362.948 315.58 360.564 325.249 358.272 334.591C355.659 345.148 353.23 355.098 351.992 359.442C347.591 374.576 330.721 388.777 297.623 378.874C289.371 376.398 283.274 373.315 278.736 369.952C267.917 364.113 263.653 350.473 265.212 340.757C266.954 329.92 276.581 297.783 274.931 296.709C273.601 295.821 262.37 302.548 261.682 302.921L283.641 283.162C283.87 282.088 284.007 281.154 284.007 280.453V280.079C283.412 280.266 282.128 280.92 279.698 282.882C257.694 300.352 242.795 315.253 235.506 327.258C230.372 335.619 224.458 346.83 224.137 359.535C223.725 373.782 230.28 387.749 244.17 402.229C246.463 404.612 248.571 406.76 250.588 408.816C274.014 432.825 279.24 438.15 278.14 493.27C278.14 494.11 278.14 494.905 278.094 495.792C278.919 496.026 279.698 496.212 280.523 496.399C281.394 496.586 282.22 496.773 283.091 496.96C283.503 497.053 283.916 497.147 284.328 497.193C284.42 497.193 284.466 497.24 284.558 497.24L284.603 494.718C284.603 492.149 284.695 488.552 284.695 486.964C284.741 480.237 285.933 475.519 287.996 472.296C291.847 466.364 298.035 465.43 300.236 464.963C293.497 467.719 286.62 469.26 287.079 486.59L287.125 495.185V497.707C287.537 497.754 287.95 497.847 288.363 497.894C288.363 497.894 288.363 496.913 288.363 495.372C288.363 490.514 288.546 480.097 289.371 476.874C290.7 471.689 294.918 466.457 302.39 466.364C315.639 466.224 319.81 472.997 319.673 480.658L319.49 497.193V497.287V499.763C319.81 499.763 320.131 499.763 320.452 499.716C320.636 499.716 320.773 499.716 320.956 499.669C321.232 499.669 321.507 499.669 321.782 499.622C321.782 499.109 321.782 498.595 321.827 498.034V497.147V497.053L322.011 480.891C322.011 480.144 322.148 476.781 321.002 474.305C318.481 468.7 313.988 465.009 304.407 464.589C306.104 463.608 314.951 463.328 317.885 455.901C319.627 451.556 320.819 443.943 318.16 437.823C317.564 436.422 314.905 433.759 313.163 433.246C320.59 431.798 327.649 431.471 341.586 423.436C356.209 415.028 365.928 404.658 371.2 391.719C379.176 372.614 372.025 346.83 369.733 342.252ZM282.678 434.273C281.67 436.609 282.632 447.586 282.816 449.688C282.403 447.586 280.019 435.721 274.472 427.594C268.559 418.952 253.385 404.612 252.468 403.724C268.375 414.001 274.518 427.594 295.468 432.078C292.122 432.638 283.962 431.284 282.678 434.273ZM351.212 414.421C338.789 424.511 323.249 430.677 307.387 430.396C299.548 430.256 291.663 428.621 284.558 425.165C278.14 422.082 272.684 417.831 267.688 412.646C273.739 417.224 280.157 421.194 287.308 423.576C302.253 428.434 318.206 427.36 332.738 421.521C346.032 416.196 357.172 407.368 366.799 396.531C362.49 403.35 357.355 409.423 351.212 414.421Z" fill="white" style="fill:white;fill-opacity:1;"/>
<defs>
<filter id="filter0_d_368_12188" x="60" y="60.026" width="548" height="548" filterUnits="userSpaceOnUse" color-interpolation-filters="sRGB">
<feFlood flood-opacity="0" result="BackgroundImageFix"/>
<feColorMatrix in="SourceAlpha" type="matrix" values="0 0 0 0 0 0 0 0 0 0 0 0 0 0 0 0 0 0 127 0" result="hardAlpha"/>
<feOffset/>
<feGaussianBlur stdDeviation="30"/>
<feComposite in2="hardAlpha" operator="out"/>
<feColorMatrix type="matrix" values="0 0 0 0 0.352941 0 0 0 0 0.352941 0 0 0 0 0.352941 0 0 0 0.4 0"/>
<feBlend mode="normal" in2="BackgroundImageFix" result="effect1_dropShadow_368_12188"/>
<feBlend mode="normal" in="SourceGraphic" in2="effect1_dropShadow_368_12188" result="shape"/>
</filter>
</defs>
</svg>
