<svg width="218" height="218" viewBox="0 0 218 218" fill="none" xmlns="http://www.w3.org/2000/svg">
<path d="M0 216.454L0.903785 161.812H12.6959L19.6248 196.674L26.9195 161.812H38.3673L39.2711 216.454H31.0726L30.3194 179.585L23.1753 216.454H16.3325L8.99469 179.393L8.3061 216.454H0Z" fill="white" style="fill:white;fill-opacity:1;"/>
<path d="M46.8671 216.454V177.427H57.1314V183.686C59.563 179.179 62.2528 176.936 65.1578 176.936C65.6312 176.936 66.1261 177.022 66.6425 177.171V186.634C65.8894 186.378 65.0717 186.228 64.211 186.228C62.7262 186.292 61.4351 186.677 60.3161 187.36C59.1972 188.044 58.1212 189.155 57.1099 190.65V216.454H46.8671Z" fill="white" style="fill:white;fill-opacity:1;"/>
<path d="M66.2552 211.563V211.52C66.2552 208.807 68.4716 206.628 71.1829 206.628C73.9157 206.628 76.1106 208.829 76.1106 211.52V211.563C76.1106 214.276 73.8942 216.454 71.1829 216.454C68.4501 216.454 66.2552 214.276 66.2552 211.563Z" fill="white" style="fill:white;fill-opacity:1;"/>
<path d="M87.9028 216.454V161.812H101.847C103.891 161.812 105.699 161.94 107.312 162.175C108.926 162.41 110.476 162.859 111.96 163.478C113.445 164.098 114.693 164.931 115.662 165.978C116.63 167.024 117.405 168.37 117.943 170.058C118.48 171.681 118.739 173.561 118.739 175.697C118.739 175.783 118.739 175.868 118.739 175.953C118.653 182.533 115.963 186.228 110.669 187.083C117.082 188.065 120.331 192.508 120.396 200.391C120.396 200.519 120.396 200.647 120.396 200.754C120.396 205.902 119.04 209.79 116.35 212.417C113.574 215.109 109.572 216.433 104.343 216.433L87.9028 216.454ZM99.0924 183.878H101.782C104.558 183.878 106.43 183.28 107.463 182.063C108.474 180.845 108.991 178.88 108.991 176.167C108.991 173.646 108.324 171.873 107.011 170.891C105.699 169.908 103.611 169.417 100.792 169.417H99.0924V183.878ZM99.0924 208.658H102.148C104.967 208.658 106.904 207.995 108.001 206.671C109.098 205.347 109.636 203.232 109.636 200.284C109.636 197.101 109.034 194.815 107.85 193.47C106.667 192.103 104.644 191.419 101.782 191.419H99.0709L99.0924 208.658Z" fill="white" style="fill:white;fill-opacity:1;"/>
<path d="M138.686 217.117C134.447 217.117 131.176 215.984 128.917 213.699C126.657 211.435 125.538 208.166 125.538 203.894V189.988C125.538 185.758 126.657 182.49 128.917 180.226C131.176 177.961 134.426 176.808 138.686 176.808C142.947 176.808 146.239 177.94 148.52 180.226C150.801 182.49 151.963 185.758 151.963 189.988V203.894C151.963 208.124 150.823 211.392 148.52 213.677C146.239 215.984 142.968 217.117 138.686 217.117ZM138.729 210.131C139.956 210.131 140.773 209.662 141.182 208.722C141.613 207.782 141.806 206.415 141.806 204.62V189.304C141.806 187.489 141.591 186.1 141.182 185.16C140.752 184.22 139.934 183.75 138.729 183.75C137.524 183.75 136.728 184.22 136.319 185.182C135.91 186.143 135.695 187.51 135.695 189.283V204.599C135.695 206.372 135.91 207.739 136.319 208.679C136.728 209.662 137.524 210.131 138.729 210.131Z" fill="white" style="fill:white;fill-opacity:1;"/>
<path d="M158.246 216.454V177.427H168.511V181.272C171.674 178.282 174.859 176.787 178.065 176.787C180.346 176.787 182.067 177.62 183.208 179.264C184.348 180.931 184.929 183.024 184.929 185.545V216.412H174.643V187.403C174.643 186.335 174.471 185.523 174.149 184.989C173.826 184.455 173.202 184.22 172.298 184.242C171.244 184.242 169.974 184.754 168.511 185.801V216.476L158.246 216.454Z" fill="white" style="fill:white;fill-opacity:1;"/>
<path d="M200.444 217.117C194.204 217.117 191.083 212.759 191.083 204.065V190.266C191.083 187.659 191.385 185.374 191.987 183.409C192.59 181.443 193.601 179.863 195.021 178.645C196.442 177.427 198.228 176.808 200.379 176.808C202.962 176.808 205.415 177.812 207.717 179.841V161.812H217.981V216.454H207.717V213.613C205.393 215.942 202.962 217.095 200.444 217.117ZM204.532 210.26C205.436 210.26 206.512 209.939 207.717 209.277V184.519C206.62 183.857 205.544 183.537 204.532 183.537C203.435 183.537 202.617 184.007 202.122 184.947C201.628 185.886 201.369 187.083 201.369 188.557V204.77C201.369 208.444 202.424 210.26 204.532 210.26Z" fill="white" style="fill:white;fill-opacity:1;"/>
<path d="M108.37 122.462C104.97 122.632 105.064 124.598 104.97 127.508L104.894 133.047L104.875 134.048C105.026 134.067 105.196 134.086 105.366 134.105C107.633 134.37 109.938 134.521 112.224 134.502C112.697 134.502 113.15 134.502 113.622 134.483V133.481L113.698 126.677C113.755 124.428 111.828 122.273 108.37 122.462ZM71.5489 36.5354C49.1425 58.9526 49.1425 95.3003 71.5489 117.717C78.1613 124.333 85.9828 129.002 94.3143 131.686C94.7677 111.026 93.2941 109.552 84.0746 100.252L83.1678 99.3263C82.601 98.7592 82.0342 98.1733 81.4108 97.5495C74.9118 90.934 71.8701 84.3752 72.059 77.5139C72.0779 76.928 72.1157 76.3231 72.1913 75.6805C72.7958 70.388 75.2519 65.8706 77.33 62.5439C80.6362 57.2326 86.8896 51.0518 96.4492 43.6046C97.6016 42.6973 100.001 40.8261 102.362 42.0168C102.986 42.3382 104.422 43.34 104.346 45.7405C104.308 47.2526 103.628 49.4262 102.778 52.167L102.4 53.4145C100.36 59.9922 97.9983 68.6869 97.6961 70.1045L97.6394 70.3124C97.4882 70.974 97.3182 71.7679 97.2804 72.694C97.1671 76.7768 100.511 79.8577 107.218 81.8235C121.349 85.9818 124.448 78.1377 124.92 76.531C125.411 74.8677 126.431 70.7472 127.433 66.74L127.735 65.5115C128.585 62.147 129.435 58.6691 130.097 56.2308C130.928 53.1877 132.42 51.581 134.555 51.4676C136.709 51.3353 138.428 52.8096 139.675 55.8717C139.807 56.2308 143.189 64.6798 143.869 68.3089C143.888 68.4601 143.945 68.7058 144.001 68.9704L144.02 69.0649C144.511 71.4843 145.607 77.0036 145.437 83.0143C145.305 87.6829 144.455 91.7468 142.925 95.2057C141.394 98.6647 139.146 101.5 136.218 103.693C134.31 105.11 132.59 106.301 131.192 107.246C124.58 111.763 121.859 113.635 120.594 124.749C120.291 127.263 120.084 130.287 119.97 133.973C131.948 132.328 143.51 126.923 152.73 117.699C175.136 95.2814 188.682 0.565796 188.682 0.565796C188.682 0.565796 93.9554 14.1182 71.5489 36.5354ZM135.821 70.6716C135.424 69.8966 133.724 72.4105 132.496 75.6049C131.173 79.0639 129.322 83.9215 124.523 85.3581C127.811 83.4679 129.813 80.5382 130.682 77.495C131.211 75.6994 132.213 71.5788 133.27 67.2126C134.158 63.6024 135.065 59.8788 135.764 57.2137C135.802 57.0436 135.84 56.8924 135.878 56.7411C135.292 55.4936 134.839 55.229 134.744 55.2479C134.65 55.2479 134.177 55.607 133.743 57.2326C133.025 59.8788 132.042 63.7914 131.098 67.5717C130.021 71.8435 129.02 75.8695 128.51 77.6273C126.696 83.7514 119.744 89.4975 106.103 85.4904C102.703 84.4886 100.19 83.2411 98.3195 81.8802C93.8609 79.5175 92.1039 73.9982 92.7462 70.0667C93.4642 65.6816 97.4316 52.6773 96.7514 52.2426C96.2036 51.8834 91.5749 54.6053 91.2915 54.7565L100.341 46.7611C100.435 46.3264 100.492 45.9484 100.492 45.6648V45.5136C100.247 45.5892 99.7175 45.8539 98.7162 46.6477C89.6479 53.7169 83.5078 59.7465 80.504 64.6042C78.388 67.9876 75.9509 72.5239 75.8186 77.6651C75.6486 83.4301 78.3502 89.0817 84.0746 94.9411C85.0192 95.9051 85.8883 96.7746 86.7196 97.6062C96.3736 107.322 98.5273 109.476 98.0739 131.78C98.0739 132.12 98.0739 132.442 98.055 132.801C98.3951 132.895 98.7162 132.971 99.0563 133.047C99.4153 133.122 99.7553 133.198 100.114 133.273C100.284 133.311 100.454 133.349 100.624 133.368C100.662 133.368 100.681 133.387 100.719 133.387L100.738 132.366C100.738 131.327 100.776 129.871 100.776 129.229C100.794 126.507 101.286 124.598 102.136 123.293C103.723 120.893 106.273 120.515 107.18 120.326C104.403 121.441 101.569 122.065 101.758 129.077L101.777 132.555V133.576C101.947 133.595 102.117 133.633 102.287 133.651C102.287 133.651 102.287 133.255 102.287 132.631C102.287 130.665 102.362 126.45 102.703 125.146C103.25 123.048 104.989 120.931 108.068 120.893C113.528 120.836 115.247 123.577 115.19 126.677L115.115 133.368V133.406V134.408C115.247 134.408 115.379 134.408 115.512 134.389C115.587 134.389 115.644 134.389 115.719 134.37C115.833 134.37 115.946 134.37 116.059 134.351C116.059 134.143 116.059 133.935 116.078 133.708V133.349V133.311L116.154 126.771C116.154 126.469 116.211 125.108 115.738 124.106C114.699 121.838 112.848 120.345 108.899 120.175C109.598 119.778 113.245 119.664 114.454 116.659C115.172 114.901 115.663 111.82 114.567 109.344C114.321 108.777 113.226 107.7 112.508 107.492C115.568 106.906 118.478 106.773 124.221 103.522C130.248 100.12 134.253 95.924 136.426 90.6883C139.713 82.9576 136.766 72.5239 135.821 70.6716ZM99.9443 107.908C99.5286 108.853 99.9254 113.295 100.001 114.145C99.8309 113.295 98.8485 108.494 96.5625 105.205C94.1254 101.708 87.872 95.9051 87.4941 95.546C94.0498 99.7043 96.5814 105.205 105.215 107.019C103.836 107.246 100.473 106.698 99.9443 107.908ZM128.188 99.8744C123.069 103.957 116.664 106.452 110.127 106.339C106.897 106.282 103.647 105.62 100.719 104.222C98.0739 102.974 95.8257 101.254 93.7664 99.1562C96.2602 101.009 98.9052 102.615 101.852 103.579C108.011 105.545 114.586 105.11 120.575 102.747C126.054 100.593 130.644 97.0203 134.612 92.6351C132.836 95.3948 130.72 97.852 128.188 99.8744Z" fill="white" style="fill:white;fill-opacity:1;"/>
</svg>
