<svg width="46" height="45" viewBox="0 0 46 45" fill="none" xmlns="http://www.w3.org/2000/svg">
<path d="M21.1619 0.213821C12.2113 0.882042 4.56845 6.77982 1.60429 15.3069C0.747013 17.82 0.5 19.4034 0.5 22.6283C0.51453 25.0833 0.558121 25.766 0.848725 27.0589C1.51711 30.1676 2.65047 32.8405 4.36503 35.3536C5.19325 36.5447 5.57104 36.9951 5.23684 36.385C4.87359 35.7022 4.01631 32.9131 3.68211 31.3588C3.23168 29.1653 3.04278 24.9525 3.33339 23.1803C3.55134 21.7567 4.32144 19.5487 5.17872 17.8491C8.62238 10.9925 14.3182 8.00006 23.9663 8.00006C27.7586 8.00006 30.2724 8.61017 32.4955 10.0483C36.2443 12.4742 37.3486 17.1227 35.1836 21.3209C33.5126 24.5749 29.5168 26.4633 24.344 26.4778H23.3415L23.4286 28.468C23.5304 31.1699 23.9372 32.4192 25.0124 33.2036C26.1458 34.0462 30.1271 33.4215 33.0476 31.9544C39.4118 28.773 43.829 22.0763 45.1222 13.6799C45.2966 12.5614 45.3692 10.6148 45.4273 6.1116L45.5 0.0394969L34.0502 0.068552C27.7441 0.0830786 21.9466 0.155714 21.1619 0.213821Z" fill="#282828" style="fill:#282828;fill:color(display-p3 0.1569 0.1569 0.1569);fill-opacity:1;"/>
<path d="M23.5451 12.1784C23.3995 12.2364 23.3558 13.4115 23.3558 17.3432V22.4209L23.982 22.3194C25.5983 22.0727 27.0544 20.8251 27.7388 19.0986C28.2193 17.88 28.2193 15.6748 27.7533 14.6157C27.3602 13.7597 26.4137 12.7732 25.6711 12.4685C25.0886 12.2219 23.8218 12.0623 23.5451 12.1784Z" fill="#282828" style="fill:#282828;fill:color(display-p3 0.1569 0.1569 0.1569);fill-opacity:1;"/>
<path d="M13.5829 13.1955C9.88252 15.0409 6.84966 19.3567 5.81936 24.181C5.42756 26.041 5.28245 29.4994 5.51463 31.4611C5.74681 33.3501 6.44335 36.2127 7.08184 37.8111C7.5462 38.9591 7.69132 39.1771 8.48944 39.8455C11.2756 42.1705 14.7148 43.8416 18.3426 44.6262C19.6051 44.9023 20.2871 44.9459 22.8701 44.9604C25.5402 44.9604 26.1061 44.9169 27.4121 44.6262C29.4727 44.1612 30.8948 43.6817 32.6072 42.868C40.5013 39.1044 45.4641 31.0978 45.4206 22.2193V21.1294L44.7966 22.8732C43.5341 26.4478 42.1701 28.6856 39.9208 30.9379C35.2192 35.646 30.7642 37.4769 24.06 37.4769C20.6789 37.4769 18.3426 37.0265 17.1527 36.1691C16.3981 35.617 15.7306 34.6724 15.2517 33.5099L14.8889 32.609L14.8163 22.6116L14.7438 12.6142L13.5829 13.1955Z" fill="#282828" style="fill:#282828;fill:color(display-p3 0.1569 0.1569 0.1569);fill-opacity:1;"/>
</svg>
