<svg width="45" height="45" viewBox="0 0 45 45" fill="none" xmlns="http://www.w3.org/2000/svg">
<path d="M20.6619 0.17427C11.7113 0.842492 4.06845 6.74027 1.10429 15.2674C0.247013 17.7805 0 19.3639 0 22.5887C0.0145302 25.0437 0.0581208 25.7265 0.348725 27.0193C1.01711 30.128 2.15047 32.8009 3.86503 35.314C4.69325 36.5052 5.07104 36.9555 4.73684 36.3454C4.37359 35.6627 3.51631 32.8736 3.18211 31.3192C2.73168 29.1257 2.54278 24.913 2.83339 23.1408C3.05134 21.7172 3.82144 19.5091 4.67872 17.8095C8.12238 10.953 13.8182 7.9605 23.4663 7.9605C27.2586 7.9605 29.7724 8.57062 31.9955 10.0087C35.7443 12.4347 36.8486 17.0832 34.6836 21.2814C33.0126 24.5353 29.0168 26.4238 23.844 26.4383H22.8415L22.9286 28.4284C23.0304 31.1304 23.4372 32.3797 24.5124 33.1641C25.6458 34.0066 29.6271 33.382 32.5476 31.9148C38.9118 28.7335 43.329 22.0367 44.6222 13.6404C44.7966 12.5218 44.8692 10.5753 44.9273 6.07205L45 -5.39089e-05L33.5502 0.0290012C27.2441 0.0435278 21.4466 0.116164 20.6619 0.17427Z" fill="#008D43" style="fill:#008D43;fill:color(display-p3 0.0000 0.5529 0.2627);fill-opacity:1;"/>
<path d="M23.0451 12.1388C22.8995 12.1969 22.8558 13.372 22.8558 17.3037V22.3814L23.482 22.2799C25.0983 22.0332 26.5544 20.7855 27.2388 19.0591C27.7193 17.8404 27.7193 15.6352 27.2533 14.5762C26.8602 13.7202 25.9137 12.7337 25.1711 12.429C24.5886 12.1824 23.3218 12.0228 23.0451 12.1388Z" fill="#008D43" style="fill:#008D43;fill:color(display-p3 0.0000 0.5529 0.2627);fill-opacity:1;"/>
<path d="M13.0829 13.1559C9.38252 15.0014 6.34966 19.3171 5.31936 24.1414C4.92756 26.0014 4.78245 29.4598 5.01463 31.4215C5.24681 33.3106 5.94335 36.1732 6.58184 37.7716C7.0462 38.9196 7.19132 39.1375 7.98944 39.806C10.7756 42.1309 14.2148 43.802 17.8426 44.5867C19.1051 44.8628 19.7871 44.9064 22.3701 44.9209C25.0402 44.9209 25.6061 44.8773 26.9121 44.5867C28.9727 44.1217 30.3948 43.6422 32.1072 42.8284C40.0013 39.0649 44.9641 31.0582 44.9206 22.1797V21.0899L44.2966 22.8336C43.0341 26.4083 41.6701 28.6461 39.4208 30.8984C34.7192 35.6065 30.2642 37.4374 23.56 37.4374C20.1789 37.4374 17.8426 36.9869 16.6527 36.1296C15.8981 35.5774 15.2306 34.6329 14.7517 33.4704L14.3889 32.5695L14.3163 22.5721L14.2438 12.5747L13.0829 13.1559Z" fill="#008D43" style="fill:#008D43;fill:color(display-p3 0.0000 0.5529 0.2627);fill-opacity:1;"/>
</svg>
