<svg width="315" height="94" viewBox="0 0 315 94" fill="none" xmlns="http://www.w3.org/2000/svg">
<path d="M42.6629 0.359876C24.1816 1.73962 8.40057 13.9174 2.28015 31.5242C0.510035 36.7132 0 39.9827 0 46.6414C0.030002 51.7105 0.120008 53.1203 0.720049 55.7898C2.10014 62.2086 4.4403 67.7276 7.98054 72.9166C9.69066 75.3762 10.4707 76.306 9.78066 75.0463C9.03061 73.6365 7.26049 67.8776 6.57045 64.6682C5.64038 60.139 5.25036 51.4406 5.8504 47.7812C6.30043 44.8418 7.89053 40.2826 9.66065 36.7732C16.7711 22.6158 28.5319 16.4369 48.4533 16.4369C56.2838 16.4369 61.4742 17.6967 66.0645 20.6662C73.805 25.6753 76.0852 35.2735 71.6149 43.9419C68.1646 50.6607 59.9141 54.56 49.2333 54.59H47.1632L47.3432 58.6992C47.5532 64.2782 48.3933 66.8578 50.6134 68.4775C52.9536 70.2171 61.1741 68.9274 67.2046 65.8979C80.3454 59.3291 89.4661 45.5016 92.1362 28.1648C92.4963 25.8552 92.6463 21.836 92.7663 12.5377L92.9163 -6.86885e-05L69.2747 0.0599245C56.2538 0.0899191 44.283 0.239898 42.6629 0.359876Z" fill="#008D43" style="fill:#008D43;fill:color(display-p3 0.0000 0.5529 0.2627);fill-opacity:1;"/>
<path d="M47.5839 25.0644C47.2832 25.1842 47.193 27.6107 47.193 35.7287V46.2133L48.4858 46.0036C51.8232 45.4944 54.8298 42.9182 56.2429 39.3534C57.2351 36.8371 57.2351 32.2838 56.273 30.097C55.4612 28.3296 53.5069 26.2926 51.9735 25.6635C50.7709 25.1543 48.1551 24.8248 47.5839 25.0644Z" fill="#008D43" style="fill:#008D43;fill:color(display-p3 0.0000 0.5529 0.2627);fill-opacity:1;"/>
<path d="M27.0137 27.1645C19.3732 30.975 13.1109 39.8862 10.9836 49.8475C10.1746 53.688 9.87493 60.8289 10.3543 64.8794C10.8337 68.7799 12.272 74.6907 13.5903 77.9911C14.5492 80.3614 14.8488 80.8115 16.4967 82.1917C22.2496 86.9923 29.3509 90.4428 36.8416 92.063C39.4484 92.633 40.8566 92.723 46.19 92.7531C51.7032 92.7531 52.8718 92.663 55.5684 92.063C59.8232 91.1028 62.7596 90.1127 66.2952 88.4325C82.595 80.6615 92.8424 64.1293 92.7525 45.7969V43.5466L91.4641 47.1471C88.8573 54.5281 86.0408 59.1487 81.3965 63.7993C71.6885 73.5205 62.4899 77.301 48.647 77.301C41.6656 77.301 36.8416 76.3709 34.3846 74.6007C32.8266 73.4605 31.4483 71.5103 30.4595 69.11L29.7104 67.2497L29.5606 46.607L29.4108 25.9644L27.0137 27.1645Z" fill="#008D43" style="fill:#008D43;fill:color(display-p3 0.0000 0.5529 0.2627);fill-opacity:1;"/>
<path d="M164.952 0.294439C161.824 0.918986 158.126 3.31856 157.115 5.29082C156.641 6.24407 156.641 6.34268 157.21 6.67139C157.526 6.83575 158.411 7.59178 159.106 8.31494C161.539 10.7474 161.508 10.1886 161.445 35.6307L161.413 58.0157L167.354 58.213C170.609 58.3444 174.369 58.4431 175.697 58.4431H178.098L178.32 34.8418C178.478 18.735 178.446 10.7145 178.193 9.49829C177.245 4.43617 174.559 1.41205 170.103 0.425922C167.702 -0.100012 166.975 -0.132883 164.952 0.294439Z" fill="white" style="fill:white;fill-opacity:1;"/>
<path d="M123.238 1.29687C120.439 1.62064 115.708 2.43007 113.875 2.88335L112.675 3.20712L112.475 25.3206C112.342 39.8256 112.375 48.1788 112.609 49.5387C113.275 53.7153 115.508 56.8883 118.806 58.4424C121.172 59.5756 124.938 59.867 127.637 59.0899C130.269 58.3452 133.368 56.2407 134.468 54.46L135.368 52.9706L134.634 52.4526C134.268 52.1612 133.535 51.6756 133.035 51.3194C131.169 50.0243 129.903 45.7182 129.903 40.5702V37.9477L134.501 37.7534C147.23 37.2354 154.694 31.8932 156.46 22.0506C158.226 12.3698 152.362 4.59933 141.232 1.87966C138.933 1.32925 137.167 1.16736 132.069 1.10261C128.603 1.03785 124.605 1.13499 123.238 1.29687ZM134.534 9.74728C136.167 10.2329 138.367 12.3374 139.266 14.3124C139.899 15.6723 140.066 16.5141 140.033 18.8129C140.033 21.3706 139.933 21.8239 138.8 24.0579C137 27.5547 133.935 29.7563 130.869 29.7563H129.903V22.6981C129.903 13.1469 130.169 9.42351 130.869 9.26162C131.536 9.09974 133.035 9.294 134.534 9.74728Z" fill="white" style="fill:white;fill-opacity:1;"/>
<path d="M239.471 1.59153C237.013 2.41352 235.21 3.39991 234.128 4.48493C232.85 5.76723 232.719 6.68786 233.604 8.13456C235.177 10.6663 235.112 10.9951 226.918 36.148C222.821 48.708 219.51 58.9993 219.543 59.0321C219.609 59.065 223.345 59.2294 227.868 59.3609C234.489 59.5253 236.128 59.4925 236.423 59.1308C236.619 58.9006 237.078 57.158 237.504 55.251C237.898 53.344 238.291 51.5356 238.356 51.2068C238.52 50.7136 239.143 50.6478 245.37 50.6478C251.598 50.6478 252.221 50.7136 252.384 51.2068C252.483 51.5356 252.843 53.2125 253.237 54.9222C253.63 56.6319 254.056 58.3745 254.22 58.7691L254.548 59.5253H263.561C271.067 59.5253 272.574 59.4596 272.574 59.065C272.574 57.8485 259.595 15.3681 258.153 11.8171C256.219 7.18106 253.433 4.02462 249.631 2.21624C247.796 1.32849 247.075 1.1641 244.387 1.09834C242.06 1.03258 240.815 1.1641 239.471 1.59153ZM247.566 28.5528C248.714 34.2738 249.631 39.2386 249.631 39.5346C249.631 40.0606 249.205 40.1264 245.207 40.1264C242.781 40.1264 240.782 39.9949 240.782 39.8633C240.782 39.7318 241.667 35.1616 242.748 29.7693C243.863 24.3442 244.846 19.4123 244.944 18.8204C245.043 18.2286 245.207 17.834 245.305 17.9327C245.436 18.0313 246.419 22.8317 247.566 28.5528Z" fill="white" style="fill:white;fill-opacity:1;"/>
<path d="M194.092 1.33733C190.485 1.73273 184.005 2.91894 183.37 3.28139C182.969 3.54499 182.869 7.00475 182.769 26.5771C182.702 43.7112 182.769 50.0376 183.07 51.3886C184.005 55.6721 186.911 59.0659 190.485 60.1203C192.99 60.8452 196.664 60.7464 198.969 59.9226C201.24 59.0659 204.046 56.8912 204.948 55.2437L205.616 54.0246L204.013 52.6736C202.409 51.3227 201.608 50.1365 201.04 48.2912C200.572 46.7426 200.138 41.833 200.339 40.1526L200.506 38.6369L205.082 38.4392C210.393 38.2415 213.8 37.4507 217.273 35.6384C223.152 32.607 226.626 27.302 227.06 20.679C227.428 15.1105 226.092 11.3871 222.35 7.6967C219.578 4.96184 216.004 3.05074 211.461 1.96338C208.155 1.13963 198.835 0.810129 194.092 1.33733ZM205.816 10.4645C207.821 11.486 209.524 13.6277 210.159 15.9013C211.161 19.5258 209.791 24.7649 207.186 27.4668C205.75 28.9495 203.077 30.3005 201.541 30.3005H200.439V19.9212V9.54191H202.242C203.545 9.54191 204.514 9.77256 205.816 10.4645Z" fill="white" style="fill:white;fill-opacity:1;"/>
<path d="M281.045 1.25284C279.116 1.64443 275.789 3.21079 274.425 4.35292C272.961 5.56032 272.196 6.99614 272.761 7.42037C275.223 9.34568 276.055 10.292 276.72 11.9563C277.452 13.8163 277.452 13.9142 277.386 36.2348C277.319 57.7722 277.319 58.6859 277.918 58.6859C280.214 58.6859 288.964 59.4691 292.823 59.9912C304.966 61.6881 311.188 59.9259 313.883 54.15C315.38 50.9194 314.947 45.7961 313.051 44.3276C312.219 43.7076 312.186 43.7076 311.321 44.295C309.225 45.7634 304.567 46.6119 298.645 46.6119H295.019L295.218 29.5125C295.451 10.6836 295.385 9.70463 293.555 6.3435C292.39 4.22239 290.428 2.55814 288.032 1.74233C286.136 1.12231 282.909 0.893884 281.045 1.25284Z" fill="white" style="fill:white;fill-opacity:1;"/>
<path d="M116.569 74.9249C113.777 75.8373 112.397 78.0678 112.397 81.7852C112.397 86.3474 114.708 88.7468 119.072 88.7468C120.42 88.7468 121.382 88.5103 122.602 87.8682L124.27 86.9895V84.3197V81.65H121.543C118.847 81.65 118.815 81.65 118.815 82.4948C118.815 83.3059 118.911 83.3397 120.741 83.3397H122.666V84.5225C122.666 86.2798 121.254 87.1247 118.591 86.9895C116.89 86.8881 116.441 86.7192 115.606 85.8743C113.97 84.2184 113.585 81.481 114.644 79.0478C115.51 77.0201 116.89 76.1753 119.104 76.3443C120.837 76.4794 121.382 76.8512 122.505 78.7099C122.73 79.0816 123.019 79.1492 123.564 78.9126L124.302 78.6085L123.629 77.2567C123.276 76.5132 122.537 75.6684 121.992 75.3642C120.741 74.6883 118.013 74.4518 116.569 74.9249Z" fill="white" style="fill:white;fill-opacity:1;"/>
<path d="M172.776 75.1061C171.248 75.7098 170.418 76.4141 169.654 77.7556C167.595 81.2099 168.957 86.9448 172.145 88.2863C173.739 88.957 176.396 88.89 177.857 88.1186C178.953 87.5485 180.581 85.4021 180.581 84.463C180.581 84.2953 180.215 84.0606 179.751 83.96C179.02 83.8258 178.821 83.9935 178.422 84.9326C177.857 86.3411 176.595 87.146 174.935 87.2131C172.444 87.2802 170.617 84.9996 170.617 81.8136C170.617 77.8226 172.643 75.8439 176.13 76.4811C176.994 76.6488 177.492 77.0177 177.99 77.8897C178.488 78.7281 178.887 79.03 179.385 78.9629C180.415 78.8288 180.415 77.9232 179.352 76.6824C177.791 74.8043 175.167 74.1671 172.776 75.1061Z" fill="white" style="fill:white;fill-opacity:1;"/>
<path d="M182.745 82.2532V88.7468H183.611C184.477 88.7468 184.477 88.7151 184.621 85.2307C184.73 81.9997 184.802 81.683 185.595 81.1128C186.642 80.3526 188.229 80.3526 188.986 81.0811C189.492 81.5563 189.6 82.3482 189.6 85.1991V88.7468H190.502H191.404V84.7873C191.404 80.9861 191.368 80.7644 190.502 80.0358C189.816 79.4023 189.275 79.2439 187.904 79.2439C186.894 79.2439 185.812 79.4656 185.343 79.7507L184.549 80.2259V78.0085C184.549 75.8228 184.513 75.7595 183.647 75.7595H182.745V82.2532Z" fill="white" style="fill:white;fill-opacity:1;"/>
<path d="M219.543 76.3006C219.543 76.7335 219.651 76.8417 220.084 76.8417C220.517 76.8417 220.625 76.7335 220.625 76.3006C220.625 75.8677 220.517 75.7595 220.084 75.7595C219.651 75.7595 219.543 75.8677 219.543 76.3006Z" fill="white" style="fill:white;fill-opacity:1;"/>
<path d="M259.369 76.4564C259.096 76.8365 258.883 77.6284 258.883 78.1986C258.883 78.9905 258.731 79.2122 258.215 79.3073C257.272 79.434 257.12 80.4476 258.032 80.5743C258.701 80.6693 258.731 80.7644 258.822 84.6922L258.914 88.7468H259.643H260.403V84.6289V80.511H261.345C262.074 80.511 262.257 80.3843 262.165 79.9408C262.105 79.624 261.74 79.3706 261.223 79.3073C259.764 79.1172 260.281 77.0265 261.801 77.0265C262.348 77.0265 262.834 76.4881 262.834 75.8862C262.834 75.8228 262.165 75.7595 261.345 75.7595C260.129 75.7595 259.734 75.8862 259.369 76.4564Z" fill="white" style="fill:white;fill-opacity:1;"/>
<path d="M301.177 76.002C300.408 76.3393 299.831 77.5534 299.831 78.9023C299.831 79.4757 299.671 79.7117 299.19 79.7117C298.773 79.7117 298.549 79.9478 298.549 80.3862C298.549 80.8246 298.773 81.0607 299.19 81.0607C299.799 81.0607 299.831 81.2968 299.831 85.4449V89.8291H300.632H301.433V85.4449V81.0607H302.395C303.132 81.0607 303.356 80.9258 303.356 80.3862C303.356 79.8466 303.132 79.7117 302.395 79.7117C301.593 79.7117 301.433 79.5768 301.433 78.9361C301.433 77.8906 302.01 77.351 303.132 77.351C303.901 77.351 304.029 77.2161 303.933 76.5753C303.869 76.002 303.612 75.7997 302.875 75.766C302.363 75.7322 301.593 75.8334 301.177 76.002Z" fill="white" style="fill:white;fill-opacity:1;"/>
<path d="M233.875 76.16C233.597 76.4209 233.458 77.0405 233.458 77.7904C233.458 78.7361 233.365 78.9643 232.994 78.9643C232.693 78.9643 232.53 79.1926 232.53 79.6165C232.53 80.0404 232.693 80.2687 232.994 80.2687C233.435 80.2687 233.458 80.4969 233.458 83.9534C233.458 88.1273 233.667 88.7468 235.035 88.7468C235.661 88.7468 235.777 88.6164 235.777 87.9642C235.777 87.3773 235.638 87.149 235.267 87.0512C234.757 86.9534 234.733 86.7903 234.664 83.5947L234.594 80.2687H235.197C235.615 80.2687 235.777 80.1056 235.777 79.6165C235.777 79.1274 235.615 78.9643 235.197 78.9643C234.664 78.9643 234.617 78.8665 234.617 77.3339C234.617 75.6057 234.525 75.4426 233.875 76.16Z" fill="white" style="fill:white;fill-opacity:1;"/>
<path d="M285.562 82.2532V88.7468H289.891C293.987 88.7468 294.22 88.7144 294.22 88.0975C294.22 87.4806 293.987 87.4481 290.89 87.4481H287.56V81.6038V75.7595H286.561H285.562V82.2532Z" fill="white" style="fill:white;fill-opacity:1;"/>
<path d="M296.429 76.5057C296.429 76.9162 296.409 77.3639 296.388 77.5131C296.326 78.0355 297.09 78.0728 297.276 77.5505C297.626 76.5804 297.482 75.7595 296.945 75.7595C296.574 75.7595 296.429 75.9461 296.429 76.5057Z" fill="white" style="fill:white;fill-opacity:1;"/>
<path d="M126.598 80.1714C126.495 81.44 126.426 83.8323 126.495 85.5359C126.598 88.3631 126.667 88.6169 127.324 88.7256C128.015 88.8344 128.084 88.6531 128.222 85.0284C128.395 80.6426 128.913 79.5552 130.641 79.8089C131.332 79.9176 131.643 79.8089 131.816 79.3014C131.919 78.939 131.885 78.504 131.781 78.2865C131.436 77.7066 129.466 77.8516 128.775 78.5402C128.188 79.0839 128.153 79.0839 128.153 78.5402C128.153 78.1778 127.877 77.924 127.497 77.924C126.944 77.924 126.806 78.2865 126.598 80.1714Z" fill="white" style="fill:white;fill-opacity:1;"/>
<path d="M134.756 78.7049C133.538 79.7694 132.961 81.2243 132.961 83.2823C132.961 86.8307 134.532 88.7113 137.482 88.7468C139.214 88.7468 140.432 88.0017 141.138 86.4759C141.619 85.4468 141.619 85.4113 140.849 85.4113C140.4 85.4113 139.695 85.8017 139.246 86.2984C138.059 87.6113 136.488 87.5049 135.398 86.0855C134.949 85.4823 134.564 84.7017 134.564 84.3114C134.564 83.6372 134.756 83.6017 138.091 83.7081L141.619 83.8146V82.821C141.619 81.3662 140.849 79.592 139.855 78.7404C138.637 77.6759 135.975 77.6404 134.756 78.7049ZM138.957 80.1597C140.432 82.0049 140.24 82.2178 137.322 82.2178C134.756 82.2178 134.628 82.1823 134.788 81.5081C135.045 80.4791 136.424 79.3791 137.45 79.3791C137.931 79.3791 138.572 79.7339 138.957 80.1597Z" fill="white" style="fill:white;fill-opacity:1;"/>
<path d="M146.33 78.2368C143.707 79.4005 142.875 84.8312 144.955 87.2644C145.915 88.3928 147.738 88.957 149.274 88.6749C150.522 88.3928 152.282 86.7707 152.282 85.8538C152.282 85.1133 150.714 85.1133 150.458 85.8186C150.17 86.6649 148.57 87.4407 147.642 87.1938C146.714 86.947 145.563 85.5012 145.563 84.549C145.563 83.9848 145.915 83.879 149.018 83.8085L152.442 83.7027L152.346 82.2922C152.218 80.5642 151.514 79.2242 150.362 78.4484C149.402 77.8489 147.45 77.7431 146.33 78.2368ZM149.882 80.1763C150.33 80.6347 150.682 81.3753 150.682 81.7985C150.682 82.5037 150.586 82.539 149.21 82.3274C148.378 82.2216 147.226 82.1158 146.65 82.1158C145.307 82.1158 145.275 81.6574 146.49 80.3174C147.642 79.0479 148.826 79.0126 149.882 80.1763Z" fill="white" style="fill:white;fill-opacity:1;"/>
<path d="M156.91 78.6444C156.058 79.2217 155.869 79.2577 155.869 78.8248C155.869 78.5361 155.585 78.2836 155.237 78.2836C154.638 78.2836 154.606 78.5361 154.606 83.5152V88.7468H155.395H156.184V85.1027C156.184 83.1183 156.311 81.17 156.5 80.8092C156.91 79.9433 158.363 79.4021 159.278 79.7629C160.288 80.1958 160.604 81.4947 160.604 85.3553C160.604 88.7468 160.604 88.7468 161.393 88.7468H162.182V84.9584C162.182 82.4328 162.024 80.737 161.709 79.9072C160.983 77.8867 158.804 77.3094 156.91 78.6444Z" fill="white" style="fill:white;fill-opacity:1;"/>
<path d="M194.761 79.6133C192.082 81.0827 191.689 85.3314 194.011 87.5675C195.761 89.2606 199.476 89.1009 201.19 87.28C202.334 86.0661 202.334 85.8425 201.262 85.6508C200.619 85.5231 200.19 85.7147 199.619 86.4175C198.19 88.1745 194.832 87.28 194.546 85.0758L194.439 84.2772L198.333 84.1814L202.226 84.0855L202.012 82.5841C201.869 81.4022 201.583 80.8911 200.548 80.0605C199.476 79.166 199.012 79.0063 197.583 79.0063C196.547 79.0063 195.439 79.2299 194.761 79.6133ZM198.726 80.4758C199.226 80.6675 200.333 82.1689 200.333 82.68C200.333 82.7758 199.047 82.8397 197.476 82.8397C194.261 82.8397 193.903 82.4883 195.511 81.0827C196.368 80.3161 197.547 80.0924 198.726 80.4758Z" fill="white" style="fill:white;fill-opacity:1;"/>
<path d="M205.776 79.692C205.094 80.2437 204.932 80.2762 204.932 79.8543C204.932 79.5297 204.64 79.335 204.12 79.335H203.309V84.0409V88.7468H204.088C204.835 88.7468 204.867 88.6819 204.997 85.3066C205.094 81.9963 205.159 81.834 206.004 81.0875C207.107 80.1463 207.659 80.1139 208.504 80.9577C209.088 81.5419 209.153 82.0287 209.153 85.1768V88.7468H209.965H210.776V85.4689C210.776 83.6839 210.939 81.9314 211.134 81.5744C211.653 80.5683 212.984 80.1788 213.893 80.7954C214.64 81.2823 214.673 81.477 214.673 85.0145V88.7468H215.484H216.296V84.69C216.296 80.7954 216.264 80.5683 215.484 79.8218C214.51 78.8157 212.984 78.7508 211.491 79.6595C210.452 80.3086 210.452 80.3086 209.802 79.6595C208.926 78.7833 206.913 78.7833 205.776 79.692Z" fill="white" style="fill:white;fill-opacity:1;"/>
<path d="M224.526 79.4401C222.836 80.1683 222.398 81.7514 223.493 83.1445C223.9 83.7144 224.776 84.126 226.153 84.506C228.562 85.1709 229.187 85.8674 228.186 86.8806C227.248 87.8304 225.808 87.7038 224.713 86.5323C223.712 85.4558 222.649 85.3925 222.805 86.4057C223.243 89.0652 228.656 89.6352 229.907 87.1972C230.971 85.1392 230.22 83.9677 227.279 83.0812C226.09 82.7329 224.932 82.2263 224.713 81.9414C224.369 81.4981 224.401 81.3398 225.058 80.8016C225.965 80.0417 227.498 80.2317 228.155 81.1815C228.562 81.7831 229.438 82.0364 229.844 81.6248C230.251 81.2132 229.094 79.6617 228.155 79.3135C226.841 78.8702 225.746 78.9019 224.526 79.4401Z" fill="white" style="fill:white;fill-opacity:1;"/>
<path d="M241.039 79.1486C240.665 79.2776 240.189 79.6646 239.985 79.9872C239.644 80.5032 239.644 80.5032 239.61 79.8259C239.61 79.3421 239.406 79.1163 238.964 79.1163C238.079 79.1163 237.841 80.6967 237.977 85.2445C238.079 88.4053 238.113 88.6311 238.794 88.7278C239.474 88.8246 239.542 88.6633 239.678 85.5025C239.883 81.4386 240.257 80.6 241.856 80.7935C242.979 80.9225 243.353 80.6322 243.353 79.6001C243.353 79.0841 241.992 78.826 241.039 79.1486Z" fill="white" style="fill:white;fill-opacity:1;"/>
<path d="M219.543 83.8766V88.7468H220.084H220.625V83.8766V79.0063H220.084H219.543V83.8766Z" fill="white" style="fill:white;fill-opacity:1;"/>
<path d="M243.353 79.1682C243.353 79.3036 244.119 81.4696 245.018 83.9403C245.95 86.4109 246.683 88.8477 246.683 89.2876C246.683 90.303 245.617 91.4875 244.685 91.4875C243.819 91.4875 243.786 92.7059 244.685 93.0105C245.684 93.3489 247.183 92.3336 247.782 90.9122C248.881 88.34 252.011 79.8113 252.011 79.3713C252.011 79.1006 251.711 78.9652 251.279 79.0329C250.513 79.1344 250.313 79.5405 248.515 84.651L247.782 86.817L246.45 82.9588C245.218 79.5067 245.018 79.1344 244.219 79.0329C243.753 78.9652 243.353 79.0329 243.353 79.1682Z" fill="white" style="fill:white;fill-opacity:1;"/>
<path d="M265.205 79.3342C264.85 79.4611 264.205 79.9685 263.754 80.4442C263.077 81.1419 262.948 81.6493 262.851 83.552C262.787 85.4231 262.884 86.0257 263.432 86.8819C265.14 89.5775 269.814 89.2921 271.039 86.4062C271.716 84.884 271.62 82.2201 270.846 81.015C269.782 79.3025 267.203 78.5097 265.205 79.3342ZM268.751 81.015C270.459 82.4421 270.137 86.1525 268.235 87.1356C266.172 88.1821 264.399 86.6599 264.399 83.8692C264.399 82.3787 264.528 81.9981 265.334 81.2053C266.494 80.0953 267.59 80.0319 268.751 81.015Z" fill="white" style="fill:white;fill-opacity:1;"/>
<path d="M276.759 79.5333C276.422 79.7928 276.142 79.8577 276.142 79.6955C276.142 79.5008 275.833 79.3386 275.44 79.3386H274.739V84.0427V88.7468H275.44C276.142 88.7468 276.142 88.7468 276.142 85.5351C276.142 82.7775 276.226 82.226 276.731 81.4798C277.208 80.7661 277.488 80.6363 278.105 80.7985C278.751 80.9607 278.891 80.8634 279.031 80.247C279.312 79.0142 277.937 78.56 276.759 79.5333Z" fill="white" style="fill:white;fill-opacity:1;"/>
<path d="M295.43 83.8C295.557 88.5284 295.557 88.6263 296.533 88.7241C297.467 88.8219 297.467 88.8219 297.467 83.9304V79.0063H296.406H295.302L295.43 83.8Z" fill="white" style="fill:white;fill-opacity:1;"/>
<path d="M305.471 80.1968C303.484 82.2892 303.452 86.438 305.407 88.6386C306.369 89.7209 306.625 89.8291 308.452 89.8291C310.279 89.8291 310.535 89.7209 311.529 88.6025C312.811 87.1595 312.875 86.7266 311.914 86.438C311.369 86.2937 310.984 86.5101 310.439 87.3038C309.157 89.1437 306.657 88.5664 305.952 86.2576C305.76 85.6804 305.696 85.1032 305.792 84.9949C305.92 84.8867 307.49 84.7785 309.317 84.7785H312.619V83.6601C312.619 82.0367 311.721 80.1247 310.664 79.5475C310.183 79.2589 309.061 79.0063 308.164 79.0063C306.817 79.0063 306.401 79.1867 305.471 80.1968ZM309.99 81.0627C310.343 81.4234 310.728 82.0728 310.856 82.5057C311.048 83.3354 311.016 83.3354 308.484 83.3354C305.567 83.3354 305.247 82.9386 306.689 81.3513C307.619 80.269 309.061 80.1608 309.99 81.0627Z" fill="white" style="fill:white;fill-opacity:1;"/>
</svg>
