<svg width="263" height="81" viewBox="0 0 263 81" fill="none" xmlns="http://www.w3.org/2000/svg">
<g filter="url(#filter0_i_350_4881)">
<path d="M4.29997 79V65.36L33.12 38.41C35.1733 36.5033 36.6766 34.8167 37.63 33.35C38.6566 31.8833 39.3166 30.5633 39.61 29.39C39.9766 28.1433 40.16 27.0067 40.16 25.98C40.16 23.4867 39.3166 21.5433 37.63 20.15C36.0166 18.7567 33.56 18.06 30.26 18.06C27.4733 18.06 24.87 18.6833 22.45 19.93C20.03 21.1767 18.05 23.0467 16.51 25.54L0.339966 16.52C3.19997 11.68 7.3433 7.79333 12.77 4.85999C18.1966 1.92666 24.6866 0.459991 32.24 0.459991C38.18 0.459991 43.3866 1.41333 47.86 3.31999C52.3333 5.22666 55.8166 7.93999 58.31 11.46C60.8766 14.98 62.16 19.1233 62.16 23.89C62.16 26.3833 61.83 28.8767 61.17 31.37C60.51 33.79 59.2266 36.3933 57.32 39.18C55.4866 41.8933 52.7366 44.9367 49.07 48.31L26.19 69.43L22.56 61.73H64.25V79H4.29997Z" fill="#3BC3D3" style="fill:#3BC3D3;fill:color(display-p3 0.2314 0.7647 0.8275);fill-opacity:1;"/>
<path d="M104.58 80.54C97.9796 80.54 92.1129 78.9633 86.9796 75.81C81.9196 72.6567 77.9229 68.11 74.9896 62.17C72.0562 56.23 70.5896 49.0067 70.5896 40.5C70.5896 31.9933 72.0562 24.77 74.9896 18.83C77.9229 12.89 81.9196 8.34333 86.9796 5.19C92.1129 2.03666 97.9796 0.459991 104.58 0.459991C111.106 0.459991 116.9 2.03666 121.96 5.19C127.093 8.34333 131.126 12.89 134.06 18.83C136.993 24.77 138.46 31.9933 138.46 40.5C138.46 49.0067 136.993 56.23 134.06 62.17C131.126 68.11 127.093 72.6567 121.96 75.81C116.9 78.9633 111.106 80.54 104.58 80.54ZM104.58 62.72C106.926 62.72 108.98 61.9867 110.74 60.52C112.573 59.0533 114.003 56.7067 115.03 53.48C116.056 50.18 116.57 45.8533 116.57 40.5C116.57 35.0733 116.056 30.7467 115.03 27.52C114.003 24.2933 112.573 21.9467 110.74 20.48C108.98 19.0133 106.926 18.28 104.58 18.28C102.233 18.28 100.143 19.0133 98.3096 20.48C96.5496 21.9467 95.1196 24.2933 94.0196 27.52C92.9929 30.7467 92.4796 35.0733 92.4796 40.5C92.4796 45.8533 92.9929 50.18 94.0196 53.48C95.1196 56.7067 96.5496 59.0533 98.3096 60.52C100.143 61.9867 102.233 62.72 104.58 62.72Z" fill="#3BC3D3" style="fill:#3BC3D3;fill:color(display-p3 0.2314 0.7647 0.8275);fill-opacity:1;"/>
<path d="M179.882 80.54C173.282 80.54 167.416 78.9633 162.282 75.81C157.222 72.6567 153.226 68.11 150.292 62.17C147.359 56.23 145.892 49.0067 145.892 40.5C145.892 31.9933 147.359 24.77 150.292 18.83C153.226 12.89 157.222 8.34333 162.282 5.19C167.416 2.03666 173.282 0.459991 179.882 0.459991C186.409 0.459991 192.202 2.03666 197.262 5.19C202.396 8.34333 206.429 12.89 209.362 18.83C212.296 24.77 213.762 31.9933 213.762 40.5C213.762 49.0067 212.296 56.23 209.362 62.17C206.429 68.11 202.396 72.6567 197.262 75.81C192.202 78.9633 186.409 80.54 179.882 80.54ZM179.882 62.72C182.229 62.72 184.282 61.9867 186.042 60.52C187.876 59.0533 189.306 56.7067 190.332 53.48C191.359 50.18 191.872 45.8533 191.872 40.5C191.872 35.0733 191.359 30.7467 190.332 27.52C189.306 24.2933 187.876 21.9467 186.042 20.48C184.282 19.0133 182.229 18.28 179.882 18.28C177.536 18.28 175.446 19.0133 173.612 20.48C171.852 21.9467 170.422 24.2933 169.322 27.52C168.296 30.7467 167.782 35.0733 167.782 40.5C167.782 45.8533 168.296 50.18 169.322 53.48C170.422 56.7067 171.852 59.0533 173.612 60.52C175.446 61.9867 177.536 62.72 179.882 62.72Z" fill="#3BC3D3" style="fill:#3BC3D3;fill:color(display-p3 0.2314 0.7647 0.8275);fill-opacity:1;"/>
<path d="M238.827 58.8949V22.1051H249.963V58.8949H238.827ZM226 46.0682V34.9318H262.79V46.0682H226Z" fill="#3BC3D3" style="fill:#3BC3D3;fill:color(display-p3 0.2314 0.7647 0.8275);fill-opacity:1;"/>
</g>
<defs>
<filter id="filter0_i_350_4881" x="0.339966" y="0.459991" width="264.45" height="82.08" filterUnits="userSpaceOnUse" color-interpolation-filters="sRGB">
<feFlood flood-opacity="0" result="BackgroundImageFix"/>
<feBlend mode="normal" in="SourceGraphic" in2="BackgroundImageFix" result="shape"/>
<feColorMatrix in="SourceAlpha" type="matrix" values="0 0 0 0 0 0 0 0 0 0 0 0 0 0 0 0 0 0 127 0" result="hardAlpha"/>
<feOffset dx="2" dy="2"/>
<feGaussianBlur stdDeviation="1"/>
<feComposite in2="hardAlpha" operator="arithmetic" k2="-1" k3="1"/>
<feColorMatrix type="matrix" values="0 0 0 0 0.156863 0 0 0 0 0.156863 0 0 0 0 0.156863 0 0 0 1 0"/>
<feBlend mode="normal" in2="shape" result="effect1_innerShadow_350_4881"/>
</filter>
</defs>
</svg>
